<svg version="1.1" xmlns="http://www.w3.org/2000/svg" viewBox="0 0 1281.748152810244 1061.5620280582607" width="1281.748152810244" height="1061.5620280582607">
  <!-- svg-source:excalidraw -->
  
  <defs>
    <style class="style-fonts">
      @font-face {
        font-family: "Virgil";
        src: url("https://excalidraw.com/Virgil.woff2");
      }
      @font-face {
        font-family: "Cascadia";
        src: url("https://excalidraw.com/Cascadia.woff2");
      }
    </style>
    
  </defs>
  <rect x="0" y="0" width="1281.748152810244" height="1061.5620280582607" fill="#fffce8"></rect><g stroke-linecap="round"><g transform="translate(1129.358190060194 772.7814054005214) rotate(98.84867729598267 -16.082372082131997 -26.48044165950327)"><path d="M0 0 C-2.36 -8.82, -8.79 -51.77, -14.15 -52.94 C-19.51 -54.1, -29.16 -14.63, -32.16 -6.97 M0 0 C-2.36 -8.82, -8.79 -51.77, -14.15 -52.94 C-19.51 -54.1, -29.16 -14.63, -32.16 -6.97" stroke="#1e1e1e" stroke-width="2" fill="none"></path></g><g transform="translate(1129.358190060194 772.7814054005214) rotate(98.84867729598267 -16.082372082131997 -26.48044165950327)"><path d="M-32.16 -6.97 L-34.18 -21.84 L-22.08 -18.08 L-32.16 -6.97" stroke="none" stroke-width="0" fill="#1e1e1e" fill-rule="evenodd"></path><path d="M-32.16 -6.97 C-32.68 -10.75, -33.19 -14.53, -34.18 -21.84 M-32.16 -6.97 C-32.65 -10.53, -33.13 -14.08, -34.18 -21.84 M-34.18 -21.84 C-30.7 -20.76, -27.22 -19.67, -22.08 -18.08 M-34.18 -21.84 C-31.29 -20.94, -28.4 -20.04, -22.08 -18.08 M-22.08 -18.08 C-24.11 -15.83, -26.15 -13.59, -32.16 -6.97 M-22.08 -18.08 C-24.84 -15.04, -27.6 -12, -32.16 -6.97 M-32.16 -6.97 C-32.16 -6.97, -32.16 -6.97, -32.16 -6.97 M-32.16 -6.97 C-32.16 -6.97, -32.16 -6.97, -32.16 -6.97" stroke="#1e1e1e" stroke-width="2" fill="none"></path></g></g><mask></mask><g transform="translate(1104.9180622787342 700.6935039477436) rotate(0 68.92578124999989 11.5)"><text x="0" y="0" font-family="Helvetica, Segoe UI Emoji" font-size="20px" fill="#1e1e1e" text-anchor="start" style="white-space: pre;" direction="ltr" dominant-baseline="text-before-edge">_a-zA-Z0-9{A1}</text></g><g stroke-linecap="round" transform="translate(1011.7558747162338 40.60267794774359) rotate(0 39 39)"><path d="M78 39 C78 41.03, 77.84 43.09, 77.52 45.1 C77.2 47.11, 76.72 49.12, 76.09 51.05 C75.46 52.99, 74.67 54.89, 73.75 56.71 C72.83 58.52, 71.75 60.28, 70.55 61.92 C69.36 63.57, 68.02 65.14, 66.58 66.58 C65.14 68.02, 63.57 69.36, 61.92 70.55 C60.28 71.75, 58.52 72.83, 56.71 73.75 C54.89 74.67, 52.99 75.46, 51.05 76.09 C49.12 76.72, 47.11 77.2, 45.1 77.52 C43.09 77.84, 41.03 78, 39 78 C36.97 78, 34.91 77.84, 32.9 77.52 C30.89 77.2, 28.88 76.72, 26.95 76.09 C25.01 75.46, 23.11 74.67, 21.29 73.75 C19.48 72.83, 17.72 71.75, 16.08 70.55 C14.43 69.36, 12.86 68.02, 11.42 66.58 C9.98 65.14, 8.64 63.57, 7.45 61.92 C6.25 60.28, 5.17 58.52, 4.25 56.71 C3.33 54.89, 2.54 52.99, 1.91 51.05 C1.28 49.12, 0.8 47.11, 0.48 45.1 C0.16 43.09, 0 41.03, 0 39 C0 36.97, 0.16 34.91, 0.48 32.9 C0.8 30.89, 1.28 28.88, 1.91 26.95 C2.54 25.01, 3.33 23.11, 4.25 21.29 C5.17 19.48, 6.25 17.72, 7.45 16.08 C8.64 14.43, 9.98 12.86, 11.42 11.42 C12.86 9.98, 14.43 8.64, 16.08 7.45 C17.72 6.25, 19.48 5.17, 21.29 4.25 C23.11 3.33, 25.01 2.54, 26.95 1.91 C28.88 1.28, 30.89 0.8, 32.9 0.48 C34.91 0.16, 36.97 0, 39 0 C41.03 0, 43.09 0.16, 45.1 0.48 C47.11 0.8, 49.12 1.28, 51.05 1.91 C52.99 2.54, 54.89 3.33, 56.71 4.25 C58.52 5.17, 60.28 6.25, 61.92 7.45 C63.57 8.64, 65.14 9.98, 66.58 11.42 C68.02 12.86, 69.36 14.43, 70.55 16.08 C71.75 17.72, 72.83 19.48, 73.75 21.29 C74.67 23.11, 75.46 25.01, 76.09 26.95 C76.72 28.88, 77.2 30.89, 77.52 32.9 C77.84 34.91, 77.92 37.98, 78 39 C78.08 40.02, 78.08 37.98, 78 39" stroke="#1e1e1e" stroke-width="2" fill="none"></path></g><g stroke-linecap="round" transform="translate(1017.7558747162338 46.60267794774359) rotate(0 33 33)"><path d="M66 33 C66 34.72, 65.86 36.46, 65.59 38.16 C65.32 39.86, 64.92 41.56, 64.38 43.2 C63.85 44.83, 63.18 46.45, 62.4 47.98 C61.62 49.51, 60.71 51, 59.7 52.4 C58.69 53.79, 57.55 55.12, 56.33 56.33 C55.12 57.55, 53.79 58.69, 52.4 59.7 C51 60.71, 49.51 61.62, 47.98 62.4 C46.45 63.18, 44.83 63.85, 43.2 64.38 C41.56 64.92, 39.86 65.32, 38.16 65.59 C36.46 65.86, 34.72 66, 33 66 C31.28 66, 29.54 65.86, 27.84 65.59 C26.14 65.32, 24.44 64.92, 22.8 64.38 C21.17 63.85, 19.55 63.18, 18.02 62.4 C16.49 61.62, 15 60.71, 13.6 59.7 C12.21 58.69, 10.88 57.55, 9.67 56.33 C8.45 55.12, 7.31 53.79, 6.3 52.4 C5.29 51, 4.38 49.51, 3.6 47.98 C2.82 46.45, 2.15 44.83, 1.62 43.2 C1.08 41.56, 0.68 39.86, 0.41 38.16 C0.14 36.46, 0 34.72, 0 33 C0 31.28, 0.14 29.54, 0.41 27.84 C0.68 26.14, 1.08 24.44, 1.62 22.8 C2.15 21.17, 2.82 19.55, 3.6 18.02 C4.38 16.49, 5.29 15, 6.3 13.6 C7.31 12.21, 8.45 10.88, 9.67 9.67 C10.88 8.45, 12.21 7.31, 13.6 6.3 C15 5.29, 16.49 4.38, 18.02 3.6 C19.55 2.82, 21.17 2.15, 22.8 1.62 C24.44 1.08, 26.14 0.68, 27.84 0.41 C29.54 0.14, 31.28 0, 33 0 C34.72 0, 36.46 0.14, 38.16 0.41 C39.86 0.68, 41.56 1.08, 43.2 1.62 C44.83 2.15, 46.45 2.82, 47.98 3.6 C49.51 4.38, 51 5.29, 52.4 6.3 C53.79 7.31, 55.12 8.45, 56.33 9.67 C57.55 10.88, 58.69 12.21, 59.7 13.6 C60.71 15, 61.62 16.49, 62.4 18.02 C63.18 19.55, 63.85 21.17, 64.38 22.8 C64.92 24.44, 65.32 26.14, 65.59 27.84 C65.86 29.54, 65.93 32.14, 66 33 C66.07 33.86, 66.07 32.14, 66 33" stroke="#1e1e1e" stroke-width="2" fill="none"></path></g><g transform="translate(1039.7983040620777 68.2681541685875) rotate(0 11.123046875 11.5)"><text x="11.123046875" y="0" font-family="Helvetica, Segoe UI Emoji" font-size="19.999999999999986px" fill="#1e1e1e" text-anchor="middle" style="white-space: pre;" direction="ltr" dominant-baseline="text-before-edge">q0</text></g><g stroke-linecap="round" transform="translate(1011.7558747162338 262.2205229477436) rotate(0 39 39.00000000000003)"><path d="M78 39 C78 41.03, 77.84 43.09, 77.52 45.1 C77.2 47.11, 76.72 49.12, 76.09 51.05 C75.46 52.99, 74.67 54.89, 73.75 56.71 C72.83 58.52, 71.75 60.28, 70.55 61.92 C69.36 63.57, 68.02 65.14, 66.58 66.58 C65.14 68.02, 63.57 69.36, 61.92 70.55 C60.28 71.75, 58.52 72.83, 56.71 73.75 C54.89 74.67, 52.99 75.46, 51.05 76.09 C49.12 76.72, 47.11 77.2, 45.1 77.52 C43.09 77.84, 41.03 78, 39 78 C36.97 78, 34.91 77.84, 32.9 77.52 C30.89 77.2, 28.88 76.72, 26.95 76.09 C25.01 75.46, 23.11 74.67, 21.29 73.75 C19.48 72.83, 17.72 71.75, 16.08 70.55 C14.43 69.36, 12.86 68.02, 11.42 66.58 C9.98 65.14, 8.64 63.57, 7.45 61.92 C6.25 60.28, 5.17 58.52, 4.25 56.71 C3.33 54.89, 2.54 52.99, 1.91 51.05 C1.28 49.12, 0.8 47.11, 0.48 45.1 C0.16 43.09, 0 41.03, 0 39 C0 36.97, 0.16 34.91, 0.48 32.9 C0.8 30.89, 1.28 28.88, 1.91 26.95 C2.54 25.01, 3.33 23.11, 4.25 21.29 C5.17 19.48, 6.25 17.72, 7.45 16.08 C8.64 14.43, 9.98 12.86, 11.42 11.42 C12.86 9.98, 14.43 8.64, 16.08 7.45 C17.72 6.25, 19.48 5.17, 21.29 4.25 C23.11 3.33, 25.01 2.54, 26.95 1.91 C28.88 1.28, 30.89 0.8, 32.9 0.48 C34.91 0.16, 36.97 0, 39 0 C41.03 0, 43.09 0.16, 45.1 0.48 C47.11 0.8, 49.12 1.28, 51.05 1.91 C52.99 2.54, 54.89 3.33, 56.71 4.25 C58.52 5.17, 60.28 6.25, 61.92 7.45 C63.57 8.64, 65.14 9.98, 66.58 11.42 C68.02 12.86, 69.36 14.43, 70.55 16.08 C71.75 17.72, 72.83 19.48, 73.75 21.29 C74.67 23.11, 75.46 25.01, 76.09 26.95 C76.72 28.88, 77.2 30.89, 77.52 32.9 C77.84 34.91, 77.92 37.98, 78 39 C78.08 40.02, 78.08 37.98, 78 39" stroke="#1e1e1e" stroke-width="2" fill="none"></path></g><g transform="translate(1039.5556633749586 289.6433584814682) rotate(0 11.123046875 11.5)"><text x="11.123046875" y="0" font-family="Helvetica, Segoe UI Emoji" font-size="20px" fill="#1e1e1e" text-anchor="middle" style="white-space: pre;" direction="ltr" dominant-baseline="text-before-edge">q1</text></g><g stroke-linecap="round"><g transform="translate(1085.0080669433833 55.251967800868385) rotate(0 3.295362003852688 -10.68484415689042)"><path d="M0 0 C2.66 -3.53, 17.57 -19.32, 15.98 -21.15 C14.4 -22.98, -5.26 -12.68, -9.51 -10.98 M0 0 C2.66 -3.53, 17.57 -19.32, 15.98 -21.15 C14.4 -22.98, -5.26 -12.68, -9.51 -10.98" stroke="#1e1e1e" stroke-width="2" fill="none"></path></g><g transform="translate(1085.0080669433833 55.251967800868385) rotate(0 3.295362003852688 -10.68484415689042)"><path d="M-9.51 -10.98 L0.15 -22.46 L5.49 -10.96 L-9.51 -10.98" stroke="none" stroke-width="0" fill="#1e1e1e" fill-rule="evenodd"></path><path d="M-9.51 -10.98 C-6.67 -14.36, -3.82 -17.74, 0.15 -22.46 M-9.51 -10.98 C-5.68 -15.54, -1.85 -20.09, 0.15 -22.46 M0.15 -22.46 C1.69 -19.15, 3.22 -15.84, 5.49 -10.96 M0.15 -22.46 C2.18 -18.08, 4.22 -13.7, 5.49 -10.96 M5.49 -10.96 C2.24 -10.97, -1.02 -10.97, -9.51 -10.98 M5.49 -10.96 C2.49 -10.97, -0.51 -10.97, -9.51 -10.98 M-9.51 -10.98 C-9.51 -10.98, -9.51 -10.98, -9.51 -10.98 M-9.51 -10.98 C-9.51 -10.98, -9.51 -10.98, -9.51 -10.98" stroke="#1e1e1e" stroke-width="2" fill="none"></path></g></g><mask></mask><g transform="translate(1077.792985278734 10) rotate(0 33.2177734375 11.5)"><text x="0" y="0" font-family="Helvetica, Segoe UI Emoji" font-size="20px" fill="#1e1e1e" text-anchor="start" style="white-space: pre;" direction="ltr" dominant-baseline="text-before-edge">пробел</text></g><g stroke-linecap="round"><g transform="translate(1056.6037348992045 118.91663266361462) rotate(0 13.339648829011367 72.62836405213532)"><path d="M-0.23 0.13 C4.1 11.79, 24.08 45.69, 26.23 69.83 C28.37 93.98, 14.96 132.45, 12.65 145 M0.08 -0.02 C4.48 11.68, 24.63 45.84, 26.7 70.06 C28.77 94.27, 14.93 132.82, 12.53 145.27" stroke="#1e1e1e" stroke-width="2" fill="none"></path></g><g transform="translate(1056.6037348992045 118.91663266361462) rotate(0 13.339648829011367 72.62836405213532)"><path d="M12.88 145.48 L10.31 130.8 L22.08 133.45 L12.93 145.09" stroke="none" stroke-width="0" fill="#1e1e1e" fill-rule="evenodd"></path><path d="M12.53 145.27 C11.66 139.21, 10.2 133.58, 9.86 130.51 M12.53 145.27 C11.8 140.66, 11.07 136.05, 9.86 130.51 M9.86 130.51 C14.1 131.78, 18.36 132.48, 22.12 133.74 M9.86 130.51 C14.32 131.55, 18.87 132.91, 22.12 133.74 M22.12 133.74 C19.18 137.37, 16.26 141.45, 12.53 145.27 M22.12 133.74 C19.77 136.34, 17.58 139.07, 12.53 145.27 M12.53 145.27 C12.53 145.27, 12.53 145.27, 12.53 145.27 M12.53 145.27 C12.53 145.27, 12.53 145.27, 12.53 145.27" stroke="#1e1e1e" stroke-width="2" fill="none"></path></g></g><mask></mask><g transform="translate(1089.7558752967218 180.0449968508777) rotate(0 54.472656250000114 11.5)"><text x="0" y="0" font-family="Helvetica, Segoe UI Emoji" font-size="20px" fill="#1e1e1e" text-anchor="start" style="white-space: pre;" direction="ltr" dominant-baseline="text-before-edge">_a-zA-Z{A1}</text></g><g stroke-linecap="round"><g transform="translate(1122.695754111057 321.0158655305966) rotate(98.84867729598267 -14.81992050216229 -15.999107050683918)"><path d="M0 0 C-3.03 -6.4, -13.27 -39.46, -18.21 -38.39 C-23.15 -37.32, -27.73 -1.05, -29.64 6.42 M0 0 C-3.03 -6.4, -13.27 -39.46, -18.21 -38.39 C-23.15 -37.32, -27.73 -1.05, -29.64 6.42" stroke="#1e1e1e" stroke-width="2" fill="none"></path></g><g transform="translate(1122.695754111057 321.0158655305966) rotate(98.84867729598267 -14.81992050216229 -15.999107050683918)"><path d="M-29.64 6.42 L-33.39 -8.11 L-20.92 -5.79 L-29.64 6.42" stroke="none" stroke-width="0" fill="#1e1e1e" fill-rule="evenodd"></path><path d="M-29.64 6.42 C-30.69 2.34, -31.74 -1.74, -33.39 -8.11 M-29.64 6.42 C-31.09 0.8, -32.54 -4.81, -33.39 -8.11 M-33.39 -8.11 C-30.72 -7.61, -28.06 -7.12, -20.92 -5.79 M-33.39 -8.11 C-30.6 -7.59, -27.81 -7.07, -20.92 -5.79 M-20.92 -5.79 C-23.6 -2.04, -26.28 1.71, -29.64 6.42 M-20.92 -5.79 C-24.24 -1.14, -27.57 3.51, -29.64 6.42 M-29.64 6.42 C-29.64 6.42, -29.64 6.42, -29.64 6.42 M-29.64 6.42 C-29.64 6.42, -29.64 6.42, -29.64 6.42" stroke="#1e1e1e" stroke-width="2" fill="none"></path></g></g><mask></mask><g transform="translate(1089.7558752787336 322.43291180110447) rotate(0 68.92578125 11.5)"><text x="0" y="0" font-family="Helvetica, Segoe UI Emoji" font-size="20px" fill="#1e1e1e" text-anchor="start" style="white-space: pre;" direction="ltr" dominant-baseline="text-before-edge">_a-zA-Z0-9{A1}</text></g><g stroke-linecap="round" transform="translate(1018.4747727162337 484.5023739477437) rotate(0 39 39.000000000000036)"><path d="M78 39 C78 41.03, 77.84 43.09, 77.52 45.1 C77.2 47.11, 76.72 49.12, 76.09 51.05 C75.46 52.99, 74.67 54.89, 73.75 56.71 C72.83 58.52, 71.75 60.28, 70.55 61.92 C69.36 63.57, 68.02 65.14, 66.58 66.58 C65.14 68.02, 63.57 69.36, 61.92 70.55 C60.28 71.75, 58.52 72.83, 56.71 73.75 C54.89 74.67, 52.99 75.46, 51.05 76.09 C49.12 76.72, 47.11 77.2, 45.1 77.52 C43.09 77.84, 41.03 78, 39 78 C36.97 78, 34.91 77.84, 32.9 77.52 C30.89 77.2, 28.88 76.72, 26.95 76.09 C25.01 75.46, 23.11 74.67, 21.29 73.75 C19.48 72.83, 17.72 71.75, 16.08 70.55 C14.43 69.36, 12.86 68.02, 11.42 66.58 C9.98 65.14, 8.64 63.57, 7.45 61.92 C6.25 60.28, 5.17 58.52, 4.25 56.71 C3.33 54.89, 2.54 52.99, 1.91 51.05 C1.28 49.12, 0.8 47.11, 0.48 45.1 C0.16 43.09, 0 41.03, 0 39 C0 36.97, 0.16 34.91, 0.48 32.9 C0.8 30.89, 1.28 28.88, 1.91 26.95 C2.54 25.01, 3.33 23.11, 4.25 21.29 C5.17 19.48, 6.25 17.72, 7.45 16.08 C8.64 14.43, 9.98 12.86, 11.42 11.42 C12.86 9.98, 14.43 8.64, 16.08 7.45 C17.72 6.25, 19.48 5.17, 21.29 4.25 C23.11 3.33, 25.01 2.54, 26.95 1.91 C28.88 1.28, 30.89 0.8, 32.9 0.48 C34.91 0.16, 36.97 0, 39 0 C41.03 0, 43.09 0.16, 45.1 0.48 C47.11 0.8, 49.12 1.28, 51.05 1.91 C52.99 2.54, 54.89 3.33, 56.71 4.25 C58.52 5.17, 60.28 6.25, 61.92 7.45 C63.57 8.64, 65.14 9.98, 66.58 11.42 C68.02 12.86, 69.36 14.43, 70.55 16.08 C71.75 17.72, 72.83 19.48, 73.75 21.29 C74.67 23.11, 75.46 25.01, 76.09 26.95 C76.72 28.88, 77.2 30.89, 77.52 32.9 C77.84 34.91, 77.92 37.98, 78 39 C78.08 40.02, 78.08 37.98, 78 39" stroke="#1e1e1e" stroke-width="2" fill="none"></path></g><g transform="translate(1046.2745613749582 511.92520948146836) rotate(0 11.123046875 11.500000000000007)"><text x="11.123046875" y="0" font-family="Helvetica, Segoe UI Emoji" font-size="20px" fill="#1e1e1e" text-anchor="middle" style="white-space: pre;" direction="ltr" dominant-baseline="text-before-edge">q2</text></g><g stroke-linecap="round"><g transform="translate(1057.6304878872224 339.6113158956083) rotate(0 13.302658816646954 72.4776585989239)"><path d="M-0.16 0.18 C4.17 11.84, 24.02 45.68, 26.13 69.78 C28.24 93.87, 14.78 132.25, 12.51 144.75 M0.2 0.06 C4.58 11.77, 24.54 45.84, 26.56 69.97 C28.58 94.11, 14.66 132.4, 12.31 144.89" stroke="#1e1e1e" stroke-width="2" fill="none"></path></g><g transform="translate(1057.6304878872224 339.6113158956083) rotate(0 13.302658816646954 72.4776585989239)"><path d="M12.15 144.64 L9.21 130.31 L21.63 133.37 L12.27 144.94" stroke="none" stroke-width="0" fill="#1e1e1e" fill-rule="evenodd"></path><path d="M12.31 144.89 C11.59 139.01, 10.02 133.61, 9.63 130.13 M12.31 144.89 C11.69 141.77, 11.19 138.77, 9.63 130.13 M9.63 130.13 C12.31 130.83, 15.54 131.46, 21.9 133.35 M9.63 130.13 C13.49 131.22, 17.53 132.14, 21.9 133.35 M21.9 133.35 C17.97 138.05, 14.75 141.82, 12.31 144.89 M21.9 133.35 C19.53 136.47, 16.85 139.27, 12.31 144.89 M12.31 144.89 C12.31 144.89, 12.31 144.89, 12.31 144.89 M12.31 144.89 C12.31 144.89, 12.31 144.89, 12.31 144.89" stroke="#1e1e1e" stroke-width="2" fill="none"></path></g></g><mask></mask><g transform="translate(1099.0851852787337 405.8755549477437) rotate(0 52.12890625 11.5)"><text x="0" y="0" font-family="Helvetica, Segoe UI Emoji" font-size="20px" fill="#1e1e1e" text-anchor="start" style="white-space: pre;" direction="ltr" dominant-baseline="text-before-edge">пробел{A2}</text></g><g stroke-linecap="round"><g transform="translate(1113.460184716234 544.8939691774317) rotate(322.13426258901217 -14.312957051210446 21.292284918769766)"><path d="M0.12 -0.12 C-1.73 6.96, -6.38 42.25, -11.17 42.7 C-15.96 43.15, -25.67 9.3, -28.64 2.58 M-0.13 0.37 C-1.99 7.36, -6.56 42.07, -11.33 42.36 C-16.1 42.65, -25.79 8.76, -28.75 2.12" stroke="#1e1e1e" stroke-width="2" fill="none"></path></g><g transform="translate(1113.460184716234 544.8939691774317) rotate(322.13426258901217 -14.312957051210446 21.292284918769766)"><path d="M-0.21 0.26 L3.3 14.61 L-8.6 12.23 L-0.29 0.29" stroke="none" stroke-width="0" fill="#1e1e1e" fill-rule="evenodd"></path><path d="M0.12 -0.12 C0.91 3.89, 2.3 7.83, 3.61 14.47 M0.12 -0.12 C1.06 4.58, 2.22 9.64, 3.61 14.47 M3.61 14.47 C0.68 13.74, -1.61 13.25, -8.81 11.93 M3.61 14.47 C-0.7 13.65, -4.73 12.66, -8.81 11.93 M-8.81 11.93 C-6.33 8.24, -3.33 5.23, 0.12 -0.12 M-8.81 11.93 C-6.57 8.93, -4.45 6.2, 0.12 -0.12 M0.12 -0.12 C0.12 -0.12, 0.12 -0.12, 0.12 -0.12 M0.12 -0.12 C0.12 -0.12, 0.12 -0.12, 0.12 -0.12" stroke="#1e1e1e" stroke-width="2" fill="none"></path></g></g><mask></mask><g transform="translate(1127.661148278734 568.3067531774316) rotate(0 33.2177734375 11.5)"><text x="0" y="0" font-family="Helvetica, Segoe UI Emoji" font-size="20px" fill="#1e1e1e" text-anchor="start" style="white-space: pre;" direction="ltr" dominant-baseline="text-before-edge">пробел</text></g><g stroke-linecap="round" transform="translate(1017.3717827162343 691.9632349477436) rotate(0 39 39.00000000000003)"><path d="M78 39 C78 41.03, 77.84 43.09, 77.52 45.1 C77.2 47.11, 76.72 49.12, 76.09 51.05 C75.46 52.99, 74.67 54.89, 73.75 56.71 C72.83 58.52, 71.75 60.28, 70.55 61.92 C69.36 63.57, 68.02 65.14, 66.58 66.58 C65.14 68.02, 63.57 69.36, 61.92 70.55 C60.28 71.75, 58.52 72.83, 56.71 73.75 C54.89 74.67, 52.99 75.46, 51.05 76.09 C49.12 76.72, 47.11 77.2, 45.1 77.52 C43.09 77.84, 41.03 78, 39 78 C36.97 78, 34.91 77.84, 32.9 77.52 C30.89 77.2, 28.88 76.72, 26.95 76.09 C25.01 75.46, 23.11 74.67, 21.29 73.75 C19.48 72.83, 17.72 71.75, 16.08 70.55 C14.43 69.36, 12.86 68.02, 11.42 66.58 C9.98 65.14, 8.64 63.57, 7.45 61.92 C6.25 60.28, 5.17 58.52, 4.25 56.71 C3.33 54.89, 2.54 52.99, 1.91 51.05 C1.28 49.12, 0.8 47.11, 0.48 45.1 C0.16 43.09, 0 41.03, 0 39 C0 36.97, 0.16 34.91, 0.48 32.9 C0.8 30.89, 1.28 28.88, 1.91 26.95 C2.54 25.01, 3.33 23.11, 4.25 21.29 C5.17 19.48, 6.25 17.72, 7.45 16.08 C8.64 14.43, 9.98 12.86, 11.42 11.42 C12.86 9.98, 14.43 8.64, 16.08 7.45 C17.72 6.25, 19.48 5.17, 21.29 4.25 C23.11 3.33, 25.01 2.54, 26.95 1.91 C28.88 1.28, 30.89 0.8, 32.9 0.48 C34.91 0.16, 36.97 0, 39 0 C41.03 0, 43.09 0.16, 45.1 0.48 C47.11 0.8, 49.12 1.28, 51.05 1.91 C52.99 2.54, 54.89 3.33, 56.71 4.25 C58.52 5.17, 60.28 6.25, 61.92 7.45 C63.57 8.64, 65.14 9.98, 66.58 11.42 C68.02 12.86, 69.36 14.43, 70.55 16.08 C71.75 17.72, 72.83 19.48, 73.75 21.29 C74.67 23.11, 75.46 25.01, 76.09 26.95 C76.72 28.88, 77.2 30.89, 77.52 32.9 C77.84 34.91, 77.92 37.98, 78 39 C78.08 40.02, 78.08 37.98, 78 39" stroke="#1e1e1e" stroke-width="2" fill="none"></path></g><g transform="translate(1045.1715713749588 719.3860704814682) rotate(0 11.123046875 11.5)"><text x="11.123046875" y="0" font-family="Helvetica, Segoe UI Emoji" font-size="20px" fill="#1e1e1e" text-anchor="middle" style="white-space: pre;" direction="ltr" dominant-baseline="text-before-edge">q3</text></g><g stroke-linecap="round"><g transform="translate(1089.683148420157 560.0023742519968) rotate(180 -8.295937274068137 68.02728933928049)"><path d="M-0.09 -0.07 C-3.22 11.61, -19.24 47.22, -18.82 69.93 C-18.4 92.63, -1.15 125.14, 2.43 136.16 M0.24 -0.3 C-2.9 11.43, -19.35 47.38, -19.02 70.16 C-18.68 92.93, -1.38 125.36, 2.26 136.35" stroke="#1e1e1e" stroke-width="2" fill="none"></path></g><g transform="translate(1089.683148420157 560.0023742519968) rotate(180 -8.295937274068137 68.02728933928049)"><path d="M-0.11 0 L1.34 15.15 L-10.27 11.18 L-0.23 0.08" stroke="none" stroke-width="0" fill="#1e1e1e" fill-rule="evenodd"></path><path d="M-0.09 -0.07 C0.23 3.66, 0.69 7.49, 1.69 14.82 M-0.09 -0.07 C0.36 3.83, 0.79 7.52, 1.69 14.82 M1.69 14.82 C-1.22 14.17, -3.44 13.06, -10.36 10.86 M1.69 14.82 C-2.3 13.66, -6.09 12.38, -10.36 10.86 M-10.36 10.86 C-7.95 8.19, -5.8 5.7, -0.09 -0.07 M-10.36 10.86 C-6.39 6.65, -2.43 2.49, -0.09 -0.07 M-0.09 -0.07 C-0.09 -0.07, -0.09 -0.07, -0.09 -0.07 M-0.09 -0.07 C-0.09 -0.07, -0.09 -0.07, -0.09 -0.07" stroke="#1e1e1e" stroke-width="2" fill="none"></path></g></g><mask></mask><g transform="translate(1100.8971082787339 623.3891489477436) rotate(0 54.47265625 11.5)"><text x="0" y="0" font-family="Helvetica, Segoe UI Emoji" font-size="20px" fill="#1e1e1e" text-anchor="start" style="white-space: pre;" direction="ltr" dominant-baseline="text-before-edge">_a-zA-Z{A1}</text></g><g stroke-linecap="round" transform="translate(797.3692647162338 519.1405899477436) rotate(0 39 39.00000000000003)"><path d="M78 39 C78 41.03, 77.84 43.09, 77.52 45.1 C77.2 47.11, 76.72 49.12, 76.09 51.05 C75.46 52.99, 74.67 54.89, 73.75 56.71 C72.83 58.52, 71.75 60.28, 70.55 61.92 C69.36 63.57, 68.02 65.14, 66.58 66.58 C65.14 68.02, 63.57 69.36, 61.92 70.55 C60.28 71.75, 58.52 72.83, 56.71 73.75 C54.89 74.67, 52.99 75.46, 51.05 76.09 C49.12 76.72, 47.11 77.2, 45.1 77.52 C43.09 77.84, 41.03 78, 39 78 C36.97 78, 34.91 77.84, 32.9 77.52 C30.89 77.2, 28.88 76.72, 26.95 76.09 C25.01 75.46, 23.11 74.67, 21.29 73.75 C19.48 72.83, 17.72 71.75, 16.08 70.55 C14.43 69.36, 12.86 68.02, 11.42 66.58 C9.98 65.14, 8.64 63.57, 7.45 61.92 C6.25 60.28, 5.17 58.52, 4.25 56.71 C3.33 54.89, 2.54 52.99, 1.91 51.05 C1.28 49.12, 0.8 47.11, 0.48 45.1 C0.16 43.09, 0 41.03, 0 39 C0 36.97, 0.16 34.91, 0.48 32.9 C0.8 30.89, 1.28 28.88, 1.91 26.95 C2.54 25.01, 3.33 23.11, 4.25 21.29 C5.17 19.48, 6.25 17.72, 7.45 16.08 C8.64 14.43, 9.98 12.86, 11.42 11.42 C12.86 9.98, 14.43 8.64, 16.08 7.45 C17.72 6.25, 19.48 5.17, 21.29 4.25 C23.11 3.33, 25.01 2.54, 26.95 1.91 C28.88 1.28, 30.89 0.8, 32.9 0.48 C34.91 0.16, 36.97 0, 39 0 C41.03 0, 43.09 0.16, 45.1 0.48 C47.11 0.8, 49.12 1.28, 51.05 1.91 C52.99 2.54, 54.89 3.33, 56.71 4.25 C58.52 5.17, 60.28 6.25, 61.92 7.45 C63.57 8.64, 65.14 9.98, 66.58 11.42 C68.02 12.86, 69.36 14.43, 70.55 16.08 C71.75 17.72, 72.83 19.48, 73.75 21.29 C74.67 23.11, 75.46 25.01, 76.09 26.95 C76.72 28.88, 77.2 30.89, 77.52 32.9 C77.84 34.91, 77.92 37.98, 78 39 C78.08 40.02, 78.08 37.98, 78 39" stroke="#1e1e1e" stroke-width="2" fill="none"></path></g><g transform="translate(825.1690533749584 546.5634254814682) rotate(0 11.123046875 11.5)"><text x="11.123046875" y="0" font-family="Helvetica, Segoe UI Emoji" font-size="20px" fill="#1e1e1e" text-anchor="middle" style="white-space: pre;" direction="ltr" dominant-baseline="text-before-edge">q4</text></g><g stroke-linecap="round"><g transform="translate(1023.1994481779329 708.6115857629736) rotate(0 -78.26254656127674 -62.0034529685654)"><path d="M0.62 0.78 C-25.41 -20.05, -130.33 -104.19, -156.43 -124.79 M-0.51 0.14 C-26.65 -20.58, -131.18 -102.9, -157.15 -123.68" stroke="#1e1e1e" stroke-width="2" fill="none"></path></g><g transform="translate(1023.1994481779329 708.6115857629736) rotate(0 -78.26254656127674 -62.0034529685654)"><path d="M-157.09 -122.16 L-141.52 -120.11 L-151.67 -110.56 L-155.58 -122.01" stroke="none" stroke-width="0" fill="#1e1e1e" fill-rule="evenodd"></path><path d="M-157.15 -123.68 C-152.05 -122.22, -149.93 -120.71, -142.56 -120.2 M-157.15 -123.68 C-151.36 -122.43, -145.71 -121.05, -142.56 -120.2 M-142.56 -120.2 C-145.32 -116.17, -148.49 -113.32, -150.43 -110.27 M-142.56 -120.2 C-145.21 -116.22, -147.51 -113.54, -150.43 -110.27 M-150.43 -110.27 C-150.77 -112.51, -153.63 -115.52, -157.15 -123.68 M-150.43 -110.27 C-153.43 -115.06, -154.64 -120.19, -157.15 -123.68 M-157.15 -123.68 C-157.15 -123.68, -157.15 -123.68, -157.15 -123.68 M-157.15 -123.68 C-157.15 -123.68, -157.15 -123.68, -157.15 -123.68" stroke="#1e1e1e" stroke-width="2" fill="none"></path></g></g><mask></mask><g transform="translate(938.9140782787338 617.1872569477435) rotate(0 36.4208984375 11.5)"><text x="0" y="0" font-family="Helvetica, Segoe UI Emoji" font-size="20px" fill="#1e1e1e" text-anchor="start" style="white-space: pre;" direction="ltr" dominant-baseline="text-before-edge">запятая</text></g><g transform="translate(1266.173119716234 454.44772394774355) rotate(0 2.7783203125 11.5)"><text x="0" y="0" font-family="Helvetica, Segoe UI Emoji" font-size="20px" fill="#1e1e1e" text-anchor="start" style="white-space: pre;" direction="ltr" dominant-baseline="text-before-edge">;</text></g><g stroke-linecap="round" transform="translate(800.4920457162339 707.6043649477435) rotate(0 39 39.00000000000003)"><path d="M78 39 C78 41.03, 77.84 43.09, 77.52 45.1 C77.2 47.11, 76.72 49.12, 76.09 51.05 C75.46 52.99, 74.67 54.89, 73.75 56.71 C72.83 58.52, 71.75 60.28, 70.55 61.92 C69.36 63.57, 68.02 65.14, 66.58 66.58 C65.14 68.02, 63.57 69.36, 61.92 70.55 C60.28 71.75, 58.52 72.83, 56.71 73.75 C54.89 74.67, 52.99 75.46, 51.05 76.09 C49.12 76.72, 47.11 77.2, 45.1 77.52 C43.09 77.84, 41.03 78, 39 78 C36.97 78, 34.91 77.84, 32.9 77.52 C30.89 77.2, 28.88 76.72, 26.95 76.09 C25.01 75.46, 23.11 74.67, 21.29 73.75 C19.48 72.83, 17.72 71.75, 16.08 70.55 C14.43 69.36, 12.86 68.02, 11.42 66.58 C9.98 65.14, 8.64 63.57, 7.45 61.92 C6.25 60.28, 5.17 58.52, 4.25 56.71 C3.33 54.89, 2.54 52.99, 1.91 51.05 C1.28 49.12, 0.8 47.11, 0.48 45.1 C0.16 43.09, 0 41.03, 0 39 C0 36.97, 0.16 34.91, 0.48 32.9 C0.8 30.89, 1.28 28.88, 1.91 26.95 C2.54 25.01, 3.33 23.11, 4.25 21.29 C5.17 19.48, 6.25 17.72, 7.45 16.08 C8.64 14.43, 9.98 12.86, 11.42 11.42 C12.86 9.98, 14.43 8.64, 16.08 7.45 C17.72 6.25, 19.48 5.17, 21.29 4.25 C23.11 3.33, 25.01 2.54, 26.95 1.91 C28.88 1.28, 30.89 0.8, 32.9 0.48 C34.91 0.16, 36.97 0, 39 0 C41.03 0, 43.09 0.16, 45.1 0.48 C47.11 0.8, 49.12 1.28, 51.05 1.91 C52.99 2.54, 54.89 3.33, 56.71 4.25 C58.52 5.17, 60.28 6.25, 61.92 7.45 C63.57 8.64, 65.14 9.98, 66.58 11.42 C68.02 12.86, 69.36 14.43, 70.55 16.08 C71.75 17.72, 72.83 19.48, 73.75 21.29 C74.67 23.11, 75.46 25.01, 76.09 26.95 C76.72 28.88, 77.2 30.89, 77.52 32.9 C77.84 34.91, 77.92 37.98, 78 39 C78.08 40.02, 78.08 37.98, 78 39" stroke="#1e1e1e" stroke-width="2" fill="none"></path></g><g transform="translate(828.2918343749586 735.0272004814681) rotate(0 11.123046875 11.5)"><text x="11.123046875" y="0" font-family="Helvetica, Segoe UI Emoji" font-size="20px" fill="#1e1e1e" text-anchor="middle" style="white-space: pre;" direction="ltr" dominant-baseline="text-before-edge">q5</text></g><g stroke-linecap="round"><g transform="translate(1017.0215162176532 738.5706304371129) rotate(0 -68.98684785891191 4.126124473655068)"><path d="M0.12 -0.16 C-22.87 1.26, -114.97 7, -137.98 8.41 M-0.02 0.12 C-23.03 1.49, -115.1 6.77, -138.09 8.16" stroke="#1e1e1e" stroke-width="2" fill="none"></path></g><g transform="translate(1017.0215162176532 738.5706304371129) rotate(0 -68.98684785891191 4.126124473655068)"><path d="M-137.98 7.9 L-124.75 0.81 L-124.21 13.67 L-138.41 8.03" stroke="none" stroke-width="0" fill="#1e1e1e" fill-rule="evenodd"></path><path d="M-138.09 8.16 C-134.5 6.13, -130.35 4.17, -124.89 1.03 M-138.09 8.16 C-134.5 6.32, -130.94 4.35, -124.89 1.03 M-124.89 1.03 C-124.5 5.69, -124.2 10.36, -124.15 13.69 M-124.89 1.03 C-124.71 5.22, -124.44 9.29, -124.15 13.69 M-124.15 13.69 C-129.24 11.6, -134.45 9.68, -138.09 8.16 M-124.15 13.69 C-128.11 12.07, -132.17 10.48, -138.09 8.16 M-138.09 8.16 C-138.09 8.16, -138.09 8.16, -138.09 8.16 M-138.09 8.16 C-138.09 8.16, -138.09 8.16, -138.09 8.16" stroke="#1e1e1e" stroke-width="2" fill="none"></path></g></g><mask></mask><g transform="translate(938.9140782787338 750.1625039477437) rotate(0 33.2177734375 11.5)"><text x="0" y="0" font-family="Helvetica, Segoe UI Emoji" font-size="20px" fill="#1e1e1e" text-anchor="start" style="white-space: pre;" direction="ltr" dominant-baseline="text-before-edge">пробел</text></g><g stroke-linecap="round"><g transform="translate(837.0058747162341 708.1158299477437) rotate(0 -1.838592851397948 -56.30354158177829)"><path d="M0.15 0.02 C-0.49 -18.75, -3.16 -93.87, -3.83 -112.62 M0.04 -0.11 C-0.56 -18.86, -2.92 -93.79, -3.52 -112.49" stroke="#1e1e1e" stroke-width="2" fill="none"></path></g><g transform="translate(837.0058747162341 708.1158299477437) rotate(0 -1.838592851397948 -56.30354158177829)"><path d="M-3.55 -112.75 L3.38 -99.21 L-9.58 -98.47 L-3.41 -112.59" stroke="none" stroke-width="0" fill="#1e1e1e" fill-rule="evenodd"></path><path d="M-3.52 -112.49 C-1.32 -108.3, 0.66 -104.04, 3.25 -99.1 M-3.52 -112.49 C-1.39 -108.37, 0.52 -104.36, 3.25 -99.1 M3.25 -99.1 C-1.11 -99.14, -5.29 -98.78, -9.42 -98.7 M3.25 -99.1 C-0.05 -99.01, -3.14 -98.96, -9.42 -98.7 M-9.42 -98.7 C-7.5 -102.77, -5.89 -106.97, -3.52 -112.49 M-9.42 -98.7 C-7.81 -102.55, -6.2 -106.45, -3.52 -112.49 M-3.52 -112.49 C-3.52 -112.49, -3.52 -112.49, -3.52 -112.49 M-3.52 -112.49 C-3.52 -112.49, -3.52 -112.49, -3.52 -112.49" stroke="#1e1e1e" stroke-width="2" fill="none"></path></g></g><mask></mask><g transform="translate(838.948366278734 668.1838119477437) rotate(0 36.4208984375 11.5)"><text x="0" y="0" font-family="Helvetica, Segoe UI Emoji" font-size="20px" fill="#1e1e1e" text-anchor="start" style="white-space: pre;" direction="ltr" dominant-baseline="text-before-edge">запятая</text></g><g stroke-linecap="round"><g transform="translate(891.7422848428894 767.4334344794047) rotate(322.13426258901217 -15.62275466047845 21.26768133319669)"><path d="M0.21 -0.18 C-1.65 6.93, -6.15 41.77, -11.39 42.7 C-16.63 43.62, -27.95 11.55, -31.21 5.38 M0 0.31 C-1.76 7.35, -5.62 41.44, -10.86 42.32 C-16.1 43.21, -28.13 11.82, -31.46 5.63" stroke="#1e1e1e" stroke-width="2" fill="none"></path></g><g transform="translate(891.7422848428894 767.4334344794047) rotate(322.13426258901217 -15.62275466047845 21.26768133319669)"><path d="M0.54 -0.65 L3.41 14.44 L-8.31 11.61 L-0.22 -0.49" stroke="none" stroke-width="0" fill="#1e1e1e" fill-rule="evenodd"></path><path d="M0.21 -0.18 C0.73 2.9, 2.05 6.16, 3.67 14.42 M0.21 -0.18 C1.1 3.93, 1.91 7.86, 3.67 14.42 M3.67 14.42 C-0.7 13.5, -4.88 12.52, -8.75 11.85 M3.67 14.42 C-0.86 13.47, -5.28 12.61, -8.75 11.85 M-8.75 11.85 C-5.33 7.31, -1.83 2.65, 0.21 -0.18 M-8.75 11.85 C-5.4 7.55, -2.24 2.99, 0.21 -0.18 M0.21 -0.18 C0.21 -0.18, 0.21 -0.18, 0.21 -0.18 M0.21 -0.18 C0.21 -0.18, 0.21 -0.18, 0.21 -0.18" stroke="#1e1e1e" stroke-width="2" fill="none"></path></g></g><mask></mask><g transform="translate(842.151491573713 810.6894998255275) rotate(0 33.2177734375 11.5)"><text x="0" y="0" font-family="Helvetica, Segoe UI Emoji" font-size="20px" fill="#1e1e1e" text-anchor="start" style="white-space: pre;" direction="ltr" dominant-baseline="text-before-edge">пробел</text></g><g stroke-linecap="round" transform="translate(794.1791577162342 360.01299894774365) rotate(0 39 39.00000000000003)"><path d="M78 39 C78 41.03, 77.84 43.09, 77.52 45.1 C77.2 47.11, 76.72 49.12, 76.09 51.05 C75.46 52.99, 74.67 54.89, 73.75 56.71 C72.83 58.52, 71.75 60.28, 70.55 61.92 C69.36 63.57, 68.02 65.14, 66.58 66.58 C65.14 68.02, 63.57 69.36, 61.92 70.55 C60.28 71.75, 58.52 72.83, 56.71 73.75 C54.89 74.67, 52.99 75.46, 51.05 76.09 C49.12 76.72, 47.11 77.2, 45.1 77.52 C43.09 77.84, 41.03 78, 39 78 C36.97 78, 34.91 77.84, 32.9 77.52 C30.89 77.2, 28.88 76.72, 26.95 76.09 C25.01 75.46, 23.11 74.67, 21.29 73.75 C19.48 72.83, 17.72 71.75, 16.08 70.55 C14.43 69.36, 12.86 68.02, 11.42 66.58 C9.98 65.14, 8.64 63.57, 7.45 61.92 C6.25 60.28, 5.17 58.52, 4.25 56.71 C3.33 54.89, 2.54 52.99, 1.91 51.05 C1.28 49.12, 0.8 47.11, 0.48 45.1 C0.16 43.09, 0 41.03, 0 39 C0 36.97, 0.16 34.91, 0.48 32.9 C0.8 30.89, 1.28 28.88, 1.91 26.95 C2.54 25.01, 3.33 23.11, 4.25 21.29 C5.17 19.48, 6.25 17.72, 7.45 16.08 C8.64 14.43, 9.98 12.86, 11.42 11.42 C12.86 9.98, 14.43 8.64, 16.08 7.45 C17.72 6.25, 19.48 5.17, 21.29 4.25 C23.11 3.33, 25.01 2.54, 26.95 1.91 C28.88 1.28, 30.89 0.8, 32.9 0.48 C34.91 0.16, 36.97 0, 39 0 C41.03 0, 43.09 0.16, 45.1 0.48 C47.11 0.8, 49.12 1.28, 51.05 1.91 C52.99 2.54, 54.89 3.33, 56.71 4.25 C58.52 5.17, 60.28 6.25, 61.92 7.45 C63.57 8.64, 65.14 9.98, 66.58 11.42 C68.02 12.86, 69.36 14.43, 70.55 16.08 C71.75 17.72, 72.83 19.48, 73.75 21.29 C74.67 23.11, 75.46 25.01, 76.09 26.95 C76.72 28.88, 77.2 30.89, 77.52 32.9 C77.84 34.91, 77.92 37.98, 78 39 C78.08 40.02, 78.08 37.98, 78 39" stroke="#1e1e1e" stroke-width="2" fill="none"></path></g><g transform="translate(821.9789463749589 387.4358344814683) rotate(0 11.123046875 11.5)"><text x="11.123046875" y="0" font-family="Helvetica, Segoe UI Emoji" font-size="20px" fill="#1e1e1e" text-anchor="middle" style="white-space: pre;" direction="ltr" dominant-baseline="text-before-edge">q6</text></g><g stroke-linecap="round"><g transform="translate(850.580202716234 520.3905899477437) rotate(0 1.9343864723869046 -42.54034789318513)"><path d="M-0.11 0 C0.76 -6.02, 5.54 -21.81, 5.34 -35.96 C5.13 -50.1, -0.26 -76.66, -1.33 -84.85 M0.13 -0.14 C0.99 -6.14, 5.56 -22.05, 5.29 -36.2 C5.02 -50.36, -0.34 -76.95, -1.47 -85.08" stroke="#1e1e1e" stroke-width="2" fill="none"></path></g><g transform="translate(850.580202716234 520.3905899477437) rotate(0 1.9343864723869046 -42.54034789318513)"><path d="M-1.26 -84.91 L7.27 -72.59 L-5.21 -70.61 L-1.3 -85.28" stroke="none" stroke-width="0" fill="#1e1e1e" fill-rule="evenodd"></path><path d="M-1.47 -85.08 C1.53 -80.48, 4.62 -76.48, 7.01 -72.71 M-1.47 -85.08 C1.91 -80.23, 5.14 -75.23, 7.01 -72.71 M7.01 -72.71 C4.62 -72.27, 1.98 -71.93, -5.49 -70.63 M7.01 -72.71 C4.5 -72.21, 1.9 -71.9, -5.49 -70.63 M-5.49 -70.63 C-4.68 -73.37, -4.08 -76.29, -1.47 -85.08 M-5.49 -70.63 C-3.81 -76.35, -2.31 -81.91, -1.47 -85.08 M-1.47 -85.08 C-1.47 -85.08, -1.47 -85.08, -1.47 -85.08 M-1.47 -85.08 C-1.47 -85.08, -1.47 -85.08, -1.47 -85.08" stroke="#1e1e1e" stroke-width="2" fill="none"></path></g></g><mask></mask><g transform="translate(867.7910312787337 473.00237394774365) rotate(0 35.5615234375 11.5)"><text x="0" y="0" font-family="Helvetica, Segoe UI Emoji" font-size="20px" fill="#1e1e1e" text-anchor="start" style="white-space: pre;" direction="ltr" dominant-baseline="text-before-edge">_a-zA-Z</text></g><g stroke-linecap="round"><g transform="translate(902.755313429162 452.4564391014989) rotate(98.84867729598267 -8.715190258722487 -28.24546401298211)"><path d="M0 0 C0.08 -9.41, 3.69 -55.61, 0.48 -56.48 C-2.73 -57.34, -15.95 -13.74, -19.24 -5.19 M0 0 C0.08 -9.41, 3.69 -55.61, 0.48 -56.48 C-2.73 -57.34, -15.95 -13.74, -19.24 -5.19" stroke="#1e1e1e" stroke-width="2" fill="none"></path></g><g transform="translate(902.755313429162 452.4564391014989) rotate(98.84867729598267 -8.715190258722487 -28.24546401298211)"><path d="M-19.24 -5.19 L-20.86 -20.1 L-8.86 -16.02 L-19.24 -5.19" stroke="none" stroke-width="0" fill="#1e1e1e" fill-rule="evenodd"></path><path d="M-19.24 -5.19 C-19.72 -9.63, -20.21 -14.08, -20.86 -20.1 M-19.24 -5.19 C-19.65 -8.95, -20.06 -12.71, -20.86 -20.1 M-20.86 -20.1 C-16.51 -18.63, -12.16 -17.15, -8.86 -16.02 M-20.86 -20.1 C-16.46 -18.61, -12.06 -17.11, -8.86 -16.02 M-8.86 -16.02 C-11.64 -13.12, -14.43 -10.21, -19.24 -5.19 M-8.86 -16.02 C-12.42 -12.31, -15.97 -8.6, -19.24 -5.19 M-19.24 -5.19 C-19.24 -5.19, -19.24 -5.19, -19.24 -5.19 M-19.24 -5.19 C-19.24 -5.19, -19.24 -5.19, -19.24 -5.19" stroke="#1e1e1e" stroke-width="2" fill="none"></path></g></g><mask></mask><g transform="translate(882.3006577130338 380.68586309491) rotate(0 50.0146484375 11.5)"><text x="0" y="0" font-family="Helvetica, Segoe UI Emoji" font-size="20px" fill="#1e1e1e" text-anchor="start" style="white-space: pre;" direction="ltr" dominant-baseline="text-before-edge">_a-zA-Z0-9</text></g><g stroke-linecap="round"><g transform="translate(866.0058747162341 373.3658299477436) rotate(0 85.63832985179499 -127.9777991114743)"><path d="M0.38 0.86 C18.9 -21.67, 82.27 -92.16, 110.9 -134.82 C139.53 -177.47, 161.82 -234.77, 172.16 -255.08 M-0.88 0.26 C18.06 -22.64, 84.54 -93.73, 113.29 -136.58 C142.04 -179.42, 162.14 -236.94, 171.6 -256.81" stroke="#1e1e1e" stroke-width="2" fill="none"></path></g><g transform="translate(866.0058747162341 373.3658299477436) rotate(0 85.63832985179499 -127.9777991114743)"><path d="M173.11 -256.58 L171.83 -242.29 L159.19 -247.22 L173.28 -258.01" stroke="none" stroke-width="0" fill="#1e1e1e" fill-rule="evenodd"></path><path d="M171.6 -256.81 C172.86 -253.35, 172.79 -247.86, 172.11 -241.82 M171.6 -256.81 C172.27 -250.55, 171.9 -244.76, 172.11 -241.82 M172.11 -241.82 C168.57 -242.94, 167.55 -245.06, 160.45 -246.79 M172.11 -241.82 C167.71 -243.98, 162.26 -246.29, 160.45 -246.79 M160.45 -246.79 C162.39 -250.17, 165.22 -250.18, 171.6 -256.81 M160.45 -246.79 C164.66 -249.77, 169.31 -254.84, 171.6 -256.81 M171.6 -256.81 C171.6 -256.81, 171.6 -256.81, 171.6 -256.81 M171.6 -256.81 C171.6 -256.81, 171.6 -256.81, 171.6 -256.81" stroke="#1e1e1e" stroke-width="2" fill="none"></path></g></g><mask></mask><g transform="translate(966.5752114037334 203.0449969477437) rotate(0 2.7783203125 11.5)"><text x="0" y="0" font-family="Helvetica, Segoe UI Emoji" font-size="20px" fill="#1e1e1e" text-anchor="start" style="white-space: pre;" direction="ltr" dominant-baseline="text-before-edge">;</text></g><g stroke-linecap="round"><g transform="translate(803.390350716234 734.3526779477437) rotate(0 -27.881657425023946 -320.31537235416477)"><path d="M-0.94 0.86 C-41.23 -12.25, -205.45 -18.52, -241.34 -78.64 C-277.22 -138.76, -263.65 -281.26, -216.26 -359.88 C-168.88 -438.5, -27.56 -503.41, 42.96 -550.35 C113.48 -597.28, 179.37 -626.17, 206.84 -641.49 M0.77 0.27 C-39.7 -13.2, -205.96 -20.61, -242.2 -80.44 C-278.43 -140.28, -264.25 -280.66, -216.64 -358.76 C-169.03 -436.86, -26.89 -502, 43.45 -549.03 C113.79 -596.07, 178.31 -625.21, 205.41 -640.97" stroke="#1e1e1e" stroke-width="2" fill="none"></path></g><g transform="translate(803.390350716234 734.3526779477437) rotate(0 -27.881657425023946 -320.31537235416477)"><path d="M206.8 -642.32 L194.41 -627.05 L188.8 -641.23 L203.83 -639.1" stroke="none" stroke-width="0" fill="#1e1e1e" fill-rule="evenodd"></path><path d="M205.41 -640.97 C203.47 -636.81, 200.13 -632.08, 196.39 -628.98 M205.41 -640.97 C203.09 -637.56, 201.25 -634.82, 196.39 -628.98 M196.39 -628.98 C195.75 -631.06, 194.61 -633.94, 190.43 -640.17 M196.39 -628.98 C195.23 -632.59, 192.37 -635.53, 190.43 -640.17 M190.43 -640.17 C194.86 -639.89, 200.55 -641.08, 205.41 -640.97 M190.43 -640.17 C193.56 -640.92, 196.37 -641.12, 205.41 -640.97 M205.41 -640.97 C205.41 -640.97, 205.41 -640.97, 205.41 -640.97 M205.41 -640.97 C205.41 -640.97, 205.41 -640.97, 205.41 -640.97" stroke="#1e1e1e" stroke-width="2" fill="none"></path></g></g><mask></mask><g transform="translate(784.1477614037342 191.54499694774364) rotate(0 2.7783203125 11.5)"><text x="0" y="0" font-family="Helvetica, Segoe UI Emoji" font-size="20px" fill="#1e1e1e" text-anchor="start" style="white-space: pre;" direction="ltr" dominant-baseline="text-before-edge">;</text></g><g stroke-linecap="round"><g transform="translate(1077.005874716234 765.6158299477436) rotate(0 96.83796882893773 -343.20809162618286)"><path d="M0.26 -1.11 C30.56 -2.13, 153.6 52.57, 181.79 -6.13 C209.99 -64.83, 177.59 -241.72, 169.43 -353.3 C161.26 -464.88, 158.42 -617.9, 132.8 -675.64 C107.19 -733.38, 35.24 -695.88, 15.75 -699.75 M-1.07 0.92 C29.6 0.1, 155.76 54.73, 184 -4.66 C212.24 -64.05, 176.83 -243.2, 168.36 -355.41 C159.9 -467.61, 158.83 -620.46, 133.21 -677.87 C107.6 -735.28, 34.54 -696.21, 14.68 -699.88" stroke="#1e1e1e" stroke-width="2" fill="none"></path></g><g transform="translate(1077.005874716234 765.6158299477436) rotate(0 96.83796882893773 -343.20809162618286)"><path d="M14.4 -699.8 L28.05 -708.64 L27.91 -694.24 L14.12 -698.39" stroke="none" stroke-width="0" fill="#1e1e1e" fill-rule="evenodd"></path><path d="M14.68 -699.88 C17.04 -703.59, 22.02 -705.6, 27.17 -708.18 M14.68 -699.88 C19.34 -703.37, 23.61 -705.59, 27.17 -708.18 M27.17 -708.18 C27.44 -705.74, 28.56 -701.99, 29.07 -695.65 M27.17 -708.18 C27.45 -703.5, 28.59 -698.76, 29.07 -695.65 M29.07 -695.65 C24.38 -696.53, 22.42 -697.24, 14.68 -699.88 M29.07 -695.65 C25.94 -696.62, 22.29 -698.2, 14.68 -699.88 M14.68 -699.88 C14.68 -699.88, 14.68 -699.88, 14.68 -699.88 M14.68 -699.88 C14.68 -699.88, 14.68 -699.88, 14.68 -699.88" stroke="#1e1e1e" stroke-width="2" fill="none"></path></g></g><mask></mask><g stroke-linecap="round" transform="translate(153.89663981051854 532.8326241734987) rotate(0 39 39.00000000000003)"><path d="M78 39 C78 41.03, 77.84 43.09, 77.52 45.1 C77.2 47.11, 76.72 49.12, 76.09 51.05 C75.46 52.99, 74.67 54.89, 73.75 56.71 C72.83 58.52, 71.75 60.28, 70.55 61.92 C69.36 63.57, 68.02 65.14, 66.58 66.58 C65.14 68.02, 63.57 69.36, 61.92 70.55 C60.28 71.75, 58.52 72.83, 56.71 73.75 C54.89 74.67, 52.99 75.46, 51.05 76.09 C49.12 76.72, 47.11 77.2, 45.1 77.52 C43.09 77.84, 41.03 78, 39 78 C36.97 78, 34.91 77.84, 32.9 77.52 C30.89 77.2, 28.88 76.72, 26.95 76.09 C25.01 75.46, 23.11 74.67, 21.29 73.75 C19.48 72.83, 17.72 71.75, 16.08 70.55 C14.43 69.36, 12.86 68.02, 11.42 66.58 C9.98 65.14, 8.64 63.57, 7.45 61.92 C6.25 60.28, 5.17 58.52, 4.25 56.71 C3.33 54.89, 2.54 52.99, 1.91 51.05 C1.28 49.12, 0.8 47.11, 0.48 45.1 C0.16 43.09, 0 41.03, 0 39 C0 36.97, 0.16 34.91, 0.48 32.9 C0.8 30.89, 1.28 28.88, 1.91 26.95 C2.54 25.01, 3.33 23.11, 4.25 21.29 C5.17 19.48, 6.25 17.72, 7.45 16.08 C8.64 14.43, 9.98 12.86, 11.42 11.42 C12.86 9.98, 14.43 8.64, 16.08 7.45 C17.72 6.25, 19.48 5.17, 21.29 4.25 C23.11 3.33, 25.01 2.54, 26.95 1.91 C28.88 1.28, 30.89 0.8, 32.9 0.48 C34.91 0.16, 36.97 0, 39 0 C41.03 0, 43.09 0.16, 45.1 0.48 C47.11 0.8, 49.12 1.28, 51.05 1.91 C52.99 2.54, 54.89 3.33, 56.71 4.25 C58.52 5.17, 60.28 6.25, 61.92 7.45 C63.57 8.64, 65.14 9.98, 66.58 11.42 C68.02 12.86, 69.36 14.43, 70.55 16.08 C71.75 17.72, 72.83 19.48, 73.75 21.29 C74.67 23.11, 75.46 25.01, 76.09 26.95 C76.72 28.88, 77.2 30.89, 77.52 32.9 C77.84 34.91, 77.92 37.98, 78 39 C78.08 40.02, 78.08 37.98, 78 39" stroke="#1e1e1e" stroke-width="2" fill="none"></path></g><g transform="translate(181.69642846924307 560.2554597072235) rotate(0 11.123046875 11.5)"><text x="11.123046875" y="0" font-family="Helvetica, Segoe UI Emoji" font-size="20px" fill="#1e1e1e" text-anchor="middle" style="white-space: pre;" direction="ltr" dominant-baseline="text-before-edge">q8</text></g><g stroke-linecap="round" transform="translate(195.78779081051835 675.6705951734987) rotate(0 39 39.00000000000003)"><path d="M78 39 C78 41.03, 77.84 43.09, 77.52 45.1 C77.2 47.11, 76.72 49.12, 76.09 51.05 C75.46 52.99, 74.67 54.89, 73.75 56.71 C72.83 58.52, 71.75 60.28, 70.55 61.92 C69.36 63.57, 68.02 65.14, 66.58 66.58 C65.14 68.02, 63.57 69.36, 61.92 70.55 C60.28 71.75, 58.52 72.83, 56.71 73.75 C54.89 74.67, 52.99 75.46, 51.05 76.09 C49.12 76.72, 47.11 77.2, 45.1 77.52 C43.09 77.84, 41.03 78, 39 78 C36.97 78, 34.91 77.84, 32.9 77.52 C30.89 77.2, 28.88 76.72, 26.95 76.09 C25.01 75.46, 23.11 74.67, 21.29 73.75 C19.48 72.83, 17.72 71.75, 16.08 70.55 C14.43 69.36, 12.86 68.02, 11.42 66.58 C9.98 65.14, 8.64 63.57, 7.45 61.92 C6.25 60.28, 5.17 58.52, 4.25 56.71 C3.33 54.89, 2.54 52.99, 1.91 51.05 C1.28 49.12, 0.8 47.11, 0.48 45.1 C0.16 43.09, 0 41.03, 0 39 C0 36.97, 0.16 34.91, 0.48 32.9 C0.8 30.89, 1.28 28.88, 1.91 26.95 C2.54 25.01, 3.33 23.11, 4.25 21.29 C5.17 19.48, 6.25 17.72, 7.45 16.08 C8.64 14.43, 9.98 12.86, 11.42 11.42 C12.86 9.98, 14.43 8.64, 16.08 7.45 C17.72 6.25, 19.48 5.17, 21.29 4.25 C23.11 3.33, 25.01 2.54, 26.95 1.91 C28.88 1.28, 30.89 0.8, 32.9 0.48 C34.91 0.16, 36.97 0, 39 0 C41.03 0, 43.09 0.16, 45.1 0.48 C47.11 0.8, 49.12 1.28, 51.05 1.91 C52.99 2.54, 54.89 3.33, 56.71 4.25 C58.52 5.17, 60.28 6.25, 61.92 7.45 C63.57 8.64, 65.14 9.98, 66.58 11.42 C68.02 12.86, 69.36 14.43, 70.55 16.08 C71.75 17.72, 72.83 19.48, 73.75 21.29 C74.67 23.11, 75.46 25.01, 76.09 26.95 C76.72 28.88, 77.2 30.89, 77.52 32.9 C77.84 34.91, 77.92 37.98, 78 39 C78.08 40.02, 78.08 37.98, 78 39" stroke="#1e1e1e" stroke-width="2" fill="none"></path></g><g transform="translate(223.58757946924288 703.0934307072234) rotate(0 11.123046875 11.5)"><text x="11.123046875" y="0" font-family="Helvetica, Segoe UI Emoji" font-size="20px" fill="#1e1e1e" text-anchor="middle" style="white-space: pre;" direction="ltr" dominant-baseline="text-before-edge">q9</text></g><g stroke-linecap="round" transform="translate(266.9863188105187 828.2253831734988) rotate(0 39 39)"><path d="M78 39 C78 41.03, 77.84 43.09, 77.52 45.1 C77.2 47.11, 76.72 49.12, 76.09 51.05 C75.46 52.99, 74.67 54.89, 73.75 56.71 C72.83 58.52, 71.75 60.28, 70.55 61.92 C69.36 63.57, 68.02 65.14, 66.58 66.58 C65.14 68.02, 63.57 69.36, 61.92 70.55 C60.28 71.75, 58.52 72.83, 56.71 73.75 C54.89 74.67, 52.99 75.46, 51.05 76.09 C49.12 76.72, 47.11 77.2, 45.1 77.52 C43.09 77.84, 41.03 78, 39 78 C36.97 78, 34.91 77.84, 32.9 77.52 C30.89 77.2, 28.88 76.72, 26.95 76.09 C25.01 75.46, 23.11 74.67, 21.29 73.75 C19.48 72.83, 17.72 71.75, 16.08 70.55 C14.43 69.36, 12.86 68.02, 11.42 66.58 C9.98 65.14, 8.64 63.57, 7.45 61.92 C6.25 60.28, 5.17 58.52, 4.25 56.71 C3.33 54.89, 2.54 52.99, 1.91 51.05 C1.28 49.12, 0.8 47.11, 0.48 45.1 C0.16 43.09, 0 41.03, 0 39 C0 36.97, 0.16 34.91, 0.48 32.9 C0.8 30.89, 1.28 28.88, 1.91 26.95 C2.54 25.01, 3.33 23.11, 4.25 21.29 C5.17 19.48, 6.25 17.72, 7.45 16.08 C8.64 14.43, 9.98 12.86, 11.42 11.42 C12.86 9.98, 14.43 8.64, 16.08 7.45 C17.72 6.25, 19.48 5.17, 21.29 4.25 C23.11 3.33, 25.01 2.54, 26.95 1.91 C28.88 1.28, 30.89 0.8, 32.9 0.48 C34.91 0.16, 36.97 0, 39 0 C41.03 0, 43.09 0.16, 45.1 0.48 C47.11 0.8, 49.12 1.28, 51.05 1.91 C52.99 2.54, 54.89 3.33, 56.71 4.25 C58.52 5.17, 60.28 6.25, 61.92 7.45 C63.57 8.64, 65.14 9.98, 66.58 11.42 C68.02 12.86, 69.36 14.43, 70.55 16.08 C71.75 17.72, 72.83 19.48, 73.75 21.29 C74.67 23.11, 75.46 25.01, 76.09 26.95 C76.72 28.88, 77.2 30.89, 77.52 32.9 C77.84 34.91, 77.92 37.98, 78 39 C78.08 40.02, 78.08 37.98, 78 39" stroke="#1e1e1e" stroke-width="2" fill="none"></path></g><g transform="translate(289.22458403174323 855.6482187072235) rotate(0 16.6845703125 11.5)"><text x="16.6845703125" y="0" font-family="Helvetica, Segoe UI Emoji" font-size="20px" fill="#1e1e1e" text-anchor="middle" style="white-space: pre;" direction="ltr" dominant-baseline="text-before-edge">q10</text></g><g stroke-linecap="round" transform="translate(369.2750378105188 686.1112311734987) rotate(0 39 39.00000000000003)"><path d="M78 39 C78 41.03, 77.84 43.09, 77.52 45.1 C77.2 47.11, 76.72 49.12, 76.09 51.05 C75.46 52.99, 74.67 54.89, 73.75 56.71 C72.83 58.52, 71.75 60.28, 70.55 61.92 C69.36 63.57, 68.02 65.14, 66.58 66.58 C65.14 68.02, 63.57 69.36, 61.92 70.55 C60.28 71.75, 58.52 72.83, 56.71 73.75 C54.89 74.67, 52.99 75.46, 51.05 76.09 C49.12 76.72, 47.11 77.2, 45.1 77.52 C43.09 77.84, 41.03 78, 39 78 C36.97 78, 34.91 77.84, 32.9 77.52 C30.89 77.2, 28.88 76.72, 26.95 76.09 C25.01 75.46, 23.11 74.67, 21.29 73.75 C19.48 72.83, 17.72 71.75, 16.08 70.55 C14.43 69.36, 12.86 68.02, 11.42 66.58 C9.98 65.14, 8.64 63.57, 7.45 61.92 C6.25 60.28, 5.17 58.52, 4.25 56.71 C3.33 54.89, 2.54 52.99, 1.91 51.05 C1.28 49.12, 0.8 47.11, 0.48 45.1 C0.16 43.09, 0 41.03, 0 39 C0 36.97, 0.16 34.91, 0.48 32.9 C0.8 30.89, 1.28 28.88, 1.91 26.95 C2.54 25.01, 3.33 23.11, 4.25 21.29 C5.17 19.48, 6.25 17.72, 7.45 16.08 C8.64 14.43, 9.98 12.86, 11.42 11.42 C12.86 9.98, 14.43 8.64, 16.08 7.45 C17.72 6.25, 19.48 5.17, 21.29 4.25 C23.11 3.33, 25.01 2.54, 26.95 1.91 C28.88 1.28, 30.89 0.8, 32.9 0.48 C34.91 0.16, 36.97 0, 39 0 C41.03 0, 43.09 0.16, 45.1 0.48 C47.11 0.8, 49.12 1.28, 51.05 1.91 C52.99 2.54, 54.89 3.33, 56.71 4.25 C58.52 5.17, 60.28 6.25, 61.92 7.45 C63.57 8.64, 65.14 9.98, 66.58 11.42 C68.02 12.86, 69.36 14.43, 70.55 16.08 C71.75 17.72, 72.83 19.48, 73.75 21.29 C74.67 23.11, 75.46 25.01, 76.09 26.95 C76.72 28.88, 77.2 30.89, 77.52 32.9 C77.84 34.91, 77.92 37.98, 78 39 C78.08 40.02, 78.08 37.98, 78 39" stroke="#1e1e1e" stroke-width="2" fill="none"></path></g><g transform="translate(392.25549053174336 713.5340667072234) rotate(0 15.9423828125 11.5)"><text x="15.9423828125" y="0" font-family="Helvetica, Segoe UI Emoji" font-size="20px" fill="#1e1e1e" text-anchor="middle" style="white-space: pre;" direction="ltr" dominant-baseline="text-before-edge">q11</text></g><g stroke-linecap="round"><g transform="translate(191.24626313033286 500.91674786335176) rotate(177.79178298403346 -13.21553106256465 19.26992113591036)"><path d="M0.06 -0.09 C-1.77 6.41, -6.67 38.01, -11.07 38.86 C-15.47 39.71, -23.78 10.66, -26.34 5.01 M-0.19 -0.34 C-2.05 6.09, -6.85 37.57, -11.24 38.5 C-15.62 39.42, -23.96 10.79, -26.49 5.23" stroke="#1e1e1e" stroke-width="2" fill="none"></path></g><g transform="translate(191.24626313033286 500.91674786335176) rotate(177.79178298403346 -13.21553106256465 19.26992113591036)"><path d="M-0.07 0.11 L3.62 14.17 L-8.98 11.63 L0.19 0.3" stroke="none" stroke-width="0" fill="#1e1e1e" fill-rule="evenodd"></path><path d="M0.06 -0.09 C0.8 4.01, 1.96 8.01, 3.23 14.57 M0.06 -0.09 C0.89 3.97, 1.77 7.84, 3.23 14.57 M3.23 14.57 C-1.43 13.56, -6.64 12.5, -9.13 11.76 M3.23 14.57 C-0.65 13.62, -4.37 12.96, -9.13 11.76 M-9.13 11.76 C-5.58 7.25, -1.89 3.16, 0.06 -0.09 M-9.13 11.76 C-6.3 8.12, -3.77 4.67, 0.06 -0.09 M0.06 -0.09 C0.06 -0.09, 0.06 -0.09, 0.06 -0.09 M0.06 -0.09 C0.06 -0.09, 0.06 -0.09, 0.06 -0.09" stroke="#1e1e1e" stroke-width="2" fill="none"></path></g></g><mask></mask><g transform="translate(130.66951327873403 470.98737070612793) rotate(0 33.2177734375 11.5)"><text x="0" y="0" font-family="Helvetica, Segoe UI Emoji" font-size="20px" fill="#1e1e1e" text-anchor="start" style="white-space: pre;" direction="ltr" dominant-baseline="text-before-edge">пробел</text></g><g stroke-linecap="round"><g transform="translate(188.63678971623403 610.5957759477437) rotate(0 11.470077413258991 34.531055138826346)"><path d="M0.18 -0.03 C1.28 5.35, 2.67 20.8, 6.47 32.32 C10.26 43.85, 20.23 62.98, 22.94 69.13 M0 -0.24 C1.11 5.16, 2.6 20.92, 6.4 32.52 C10.21 44.11, 20.12 63.16, 22.82 69.3" stroke="#1e1e1e" stroke-width="2" fill="none"></path></g><g transform="translate(188.63678971623403 610.5957759477437) rotate(0 11.470077413258991 34.531055138826346)"><path d="M22.58 69.63 L11.13 59.75 L22.8 54.29 L22.95 69.44" stroke="none" stroke-width="0" fill="#1e1e1e" fill-rule="evenodd"></path><path d="M22.82 69.3 C20.11 67.44, 17.26 64.99, 11.26 59.74 M22.82 69.3 C20.01 66.86, 17.09 64.66, 11.26 59.74 M11.26 59.74 C15.45 57.69, 19.91 55.74, 22.71 54.3 M11.26 59.74 C14.08 58.39, 16.92 56.93, 22.71 54.3 M22.71 54.3 C22.99 60.46, 22.81 65.89, 22.82 69.3 M22.71 54.3 C22.82 58.92, 22.84 63.27, 22.82 69.3 M22.82 69.3 C22.82 69.3, 22.82 69.3, 22.82 69.3 M22.82 69.3 C22.82 69.3, 22.82 69.3, 22.82 69.3" stroke="#1e1e1e" stroke-width="2" fill="none"></path></g></g><mask></mask><g transform="translate(159.7348572787339 635.1081329477437) rotate(0 14.453125 11.500000000000014)"><text x="0" y="0" font-family="Helvetica, Segoe UI Emoji" font-size="20px" fill="#1e1e1e" text-anchor="start" style="white-space: pre;" direction="ltr" dominant-baseline="text-before-edge">1-9</text></g><g stroke-linecap="round"><g transform="translate(194.01273604724474 695.9897562474202) rotate(91.52050465466097 -15.52752074605661 18.861544431972902)"><path d="M0.24 -0.06 C-2.57 6.27, -11.43 37.49, -16.69 37.76 C-21.94 38.02, -28.85 7.51, -31.29 1.51 M0.03 -0.32 C-2.81 6.06, -11.75 37.7, -16.87 38.04 C-22 38.38, -28.32 7.86, -30.73 1.73" stroke="#1e1e1e" stroke-width="2" fill="none"></path></g><g transform="translate(194.01273604724474 695.9897562474202) rotate(91.52050465466097 -15.52752074605661 18.861544431972902)"><path d="M-0.03 -0.21 L1.51 14.67 L-10.03 10.36 L0.43 0.35" stroke="none" stroke-width="0" fill="#1e1e1e" fill-rule="evenodd"></path><path d="M0.24 -0.06 C0.53 5.17, 0.86 10, 1.42 14.9 M0.24 -0.06 C0.62 3.61, 0.66 7.3, 1.42 14.9 M1.42 14.9 C-2.62 13.49, -7.36 11.5, -10.46 10.46 M1.42 14.9 C-3.29 13.29, -7.92 11.5, -10.46 10.46 M-10.46 10.46 C-6.12 6.7, -2.71 2.63, 0.24 -0.06 M-10.46 10.46 C-8.34 8.11, -5.87 5.83, 0.24 -0.06 M0.24 -0.06 C0.24 -0.06, 0.24 -0.06, 0.24 -0.06 M0.24 -0.06 C0.24 -0.06, 0.24 -0.06, 0.24 -0.06" stroke="#1e1e1e" stroke-width="2" fill="none"></path></g></g><mask></mask><g transform="translate(124.99038971623395 701.7188529477437) rotate(0 14.453125 11.5)"><text x="0" y="0" font-family="Helvetica, Segoe UI Emoji" font-size="20px" fill="#1e1e1e" text-anchor="start" style="white-space: pre;" direction="ltr" dominant-baseline="text-before-edge">0-9</text></g><g stroke-linecap="round"><g transform="translate(232.63678971623403 754.5957759477437) rotate(0 21.678425195399086 41.085988902126815)"><path d="M-0.27 0.11 C-0.42 5.84, -8.56 20.78, -0.6 34.5 C7.35 48.22, 39.42 74.54, 47.44 82.42 M0.48 -0.25 C0.46 5.52, -7.47 21.35, 0.31 34.99 C8.08 48.64, 39.23 73.77, 47.13 81.61" stroke="#1e1e1e" stroke-width="2" fill="none"></path></g><g transform="translate(232.63678971623403 754.5957759477437) rotate(0 21.678425195399086 41.085988902126815)"><path d="M46.87 81.78 L33.08 76.48 L41.1 67.17 L46.25 81.16" stroke="none" stroke-width="0" fill="#1e1e1e" fill-rule="evenodd"></path><path d="M47.13 81.61 C42.17 79.52, 36.56 78.43, 32.79 77.21 M47.13 81.61 C42.36 79.77, 36.8 78.43, 32.79 77.21 M32.79 77.21 C35.17 74.47, 36.45 73.32, 41.29 67.8 M32.79 77.21 C34.81 75.3, 36.25 73.29, 41.29 67.8 M41.29 67.8 C42.42 71.36, 44.34 75.35, 47.13 81.61 M41.29 67.8 C42.71 71.89, 44.45 75.9, 47.13 81.61 M47.13 81.61 C47.13 81.61, 47.13 81.61, 47.13 81.61 M47.13 81.61 C47.13 81.61, 47.13 81.61, 47.13 81.61" stroke="#1e1e1e" stroke-width="2" fill="none"></path></g></g><mask></mask><g stroke-linecap="round"><g transform="translate(273.7359744767605 723.7831683063022) rotate(0 47.83900194584453 5.63335715874112)"><path d="M-0.05 -0.09 C7.45 1.63, 29.01 8.57, 44.98 10.4 C60.94 12.24, 87.28 10.85, 95.72 10.92 M0.25 0.24 C7.73 1.96, 28.98 8.81, 44.88 10.54 C60.78 12.28, 87.18 10.58, 95.64 10.66" stroke="#1e1e1e" stroke-width="2" fill="none"></path></g><g transform="translate(273.7359744767605 723.7831683063022) rotate(0 47.83900194584453 5.63335715874112)"><path d="M95.76 10.67 L82.53 17.38 L81.57 4.7 L95.41 10.46" stroke="none" stroke-width="0" fill="#1e1e1e" fill-rule="evenodd"></path><path d="M95.64 10.66 C91.62 12.69, 87.63 14.59, 82.2 17.31 M95.64 10.66 C90.27 13.32, 85.05 15.84, 82.2 17.31 M82.2 17.31 C82.17 13.48, 81.89 9.67, 81.91 4.63 M82.2 17.31 C82.18 14.29, 82.13 11.29, 81.91 4.63 M81.91 4.63 C86.58 6.59, 91.55 8.78, 95.64 10.66 M81.91 4.63 C86.81 6.69, 91.47 8.82, 95.64 10.66 M95.64 10.66 C95.64 10.66, 95.64 10.66, 95.64 10.66 M95.64 10.66 C95.64 10.66, 95.64 10.66, 95.64 10.66" stroke="#1e1e1e" stroke-width="2" fill="none"></path></g></g><mask></mask><g transform="translate(166.46109271623413 787.1445849477436) rotate(0 33.2177734375 11.5)"><text x="0" y="0" font-family="Helvetica, Segoe UI Emoji" font-size="20px" fill="#1e1e1e" text-anchor="start" style="white-space: pre;" direction="ltr" dominant-baseline="text-before-edge">пробел</text></g><g stroke-linecap="round"><g transform="translate(326.3970958170912 832.824799137934) rotate(0 31.380530613436008 -38.1383272120604)"><path d="M0.82 -0.45 C6.61 -4.49, 24.89 -11.64, 35.25 -24.2 C45.61 -36.77, 58.44 -67.01, 62.97 -75.83 M-0.21 -1.73 C5.92 -5.63, 27.1 -10.93, 37.57 -23.05 C48.03 -35.17, 58.39 -65.5, 62.59 -74.43" stroke="#1e1e1e" stroke-width="2" fill="none"></path></g><g transform="translate(326.3970958170912 832.824799137934) rotate(0 31.380530613436008 -38.1383272120604)"><path d="M62.69 -74.49 L65.17 -61.3 L52.73 -64.87 L62.63 -76.04" stroke="none" stroke-width="0" fill="#1e1e1e" fill-rule="evenodd"></path><path d="M62.59 -74.43 C62.26 -70.23, 62.14 -63.25, 63.25 -59.45 M62.59 -74.43 C62.25 -69.75, 63.25 -65.17, 63.25 -59.45 M63.25 -59.45 C58.49 -60.96, 54.81 -62.35, 51.53 -64.3 M63.25 -59.45 C60.23 -60.6, 58.07 -61.83, 51.53 -64.3 M51.53 -64.3 C56.09 -67.67, 59.2 -71.15, 62.59 -74.43 M51.53 -64.3 C54.48 -66.76, 56.91 -69.15, 62.59 -74.43 M62.59 -74.43 C62.59 -74.43, 62.59 -74.43, 62.59 -74.43 M62.59 -74.43 C62.59 -74.43, 62.59 -74.43, 62.59 -74.43" stroke="#1e1e1e" stroke-width="2" fill="none"></path></g></g><mask></mask><g transform="translate(366.6830297162337 820.8781549477437) rotate(0 2.7783203125 11.5)"><text x="0" y="0" font-family="Helvetica, Segoe UI Emoji" font-size="20px" fill="#1e1e1e" text-anchor="start" style="white-space: pre;" direction="ltr" dominant-baseline="text-before-edge">]</text></g><g transform="translate(309.60846940373403 699.1940079477436) rotate(0 2.7783203125 11.5)"><text x="0" y="0" font-family="Helvetica, Segoe UI Emoji" font-size="20px" fill="#1e1e1e" text-anchor="start" style="white-space: pre;" direction="ltr" dominant-baseline="text-before-edge">]</text></g><g stroke-linecap="round"><g transform="translate(432.03086683234824 763.8002746978154) rotate(333.3128101873013 -11.600754168046251 9.951249990824294)"><path d="M0.07 0.1 C-3.56 4.55, -17.96 27.65, -21.57 26.52 C-25.19 25.39, -21.59 -1.1, -21.64 -6.66 M-0.16 -0.04 C-3.82 4.37, -18.1 27.26, -21.68 26.19 C-25.27 25.13, -21.64 -0.94, -21.68 -6.43" stroke="#1e1e1e" stroke-width="2" fill="none"></path></g><g transform="translate(432.03086683234824 763.8002746978154) rotate(333.3128101873013 -11.600754168046251 9.951249990824294)"><path d="M0.34 0 L-2.77 15.09 L-12.76 7.29 L0.02 0" stroke="none" stroke-width="0" fill="#1e1e1e" fill-rule="evenodd"></path><path d="M0.07 0.1 C-0.92 5.94, -2.03 11.72, -2.81 14.82 M0.07 0.1 C-0.81 4.32, -1.49 8.74, -2.81 14.82 M-2.81 14.82 C-6.57 11.99, -10.07 9.63, -13.06 7.36 M-2.81 14.82 C-5.76 12.58, -8.65 10.49, -13.06 7.36 M-13.06 7.36 C-9.37 5.35, -4.87 2.96, 0.07 0.1 M-13.06 7.36 C-9.17 5.04, -4.88 2.94, 0.07 0.1 M0.07 0.1 C0.07 0.1, 0.07 0.1, 0.07 0.1 M0.07 0.1 C0.07 0.1, 0.07 0.1, 0.07 0.1" stroke="#1e1e1e" stroke-width="2" fill="none"></path></g></g><mask></mask><g stroke-linecap="round"><g transform="translate(332.2533557023203 904.743296228289) rotate(349.4558166841151 -13.214483860665155 21.414347852556773)"><path d="M-0.21 0.03 C-2.49 7.23, -9.05 43.37, -13.43 43.26 C-17.81 43.15, -24.25 6.67, -26.49 -0.65 M0.12 -0.16 C-2.1 7.05, -8.54 43.51, -12.99 43.47 C-17.43 43.44, -24.23 6.91, -26.55 -0.4" stroke="#1e1e1e" stroke-width="2" fill="none"></path></g><g transform="translate(332.2533557023203 904.743296228289) rotate(349.4558166841151 -13.214483860665155 21.414347852556773)"><path d="M-0.06 0.03 L2.89 14.89 L-9.76 11.43 L0 0.12" stroke="none" stroke-width="0" fill="#1e1e1e" fill-rule="evenodd"></path><path d="M-0.21 0.03 C0.94 5.48, 1.74 11.7, 2.63 14.76 M-0.21 0.03 C0.68 4.2, 1.39 8.44, 2.63 14.76 M2.63 14.76 C-1.45 13.81, -5.69 12.89, -9.67 11.67 M2.63 14.76 C-1.94 13.71, -6.58 12.52, -9.67 11.67 M-9.67 11.67 C-5.72 7.14, -2.39 2.52, -0.21 0.03 M-9.67 11.67 C-6.57 7.88, -3.41 3.92, -0.21 0.03 M-0.21 0.03 C-0.21 0.03, -0.21 0.03, -0.21 0.03 M-0.21 0.03 C-0.21 0.03, -0.21 0.03, -0.21 0.03" stroke="#1e1e1e" stroke-width="2" fill="none"></path></g></g><mask></mask><g transform="translate(333.46525673263864 938.7854689095184) rotate(0 33.2177734375 11.5)"><text x="0" y="0" font-family="Helvetica, Segoe UI Emoji" font-size="20px" fill="#1e1e1e" text-anchor="start" style="white-space: pre;" direction="ltr" dominant-baseline="text-before-edge">пробел</text></g><g stroke-linecap="round"><g transform="translate(396.13678971623403 685.5957759477437) rotate(0 -83.89628331236088 -47.23639590055217)"><path d="M0.39 -0.98 C-11.24 -10.46, -41.91 -40.75, -69.82 -56.51 C-97.74 -72.28, -150.82 -89.02, -167.1 -95.59 M-0.87 1.12 C-12.14 -8.71, -39.79 -42.17, -67.68 -58.12 C-95.56 -74.07, -151.49 -88.38, -168.18 -94.58" stroke="#1e1e1e" stroke-width="2" fill="none"></path></g><g transform="translate(396.13678971623403 685.5957759477437) rotate(0 -83.89628331236088 -47.23639590055217)"><path d="M-167.58 -94.97 L-152.95 -94.87 L-158.95 -86.29 L-167.69 -93.77" stroke="none" stroke-width="0" fill="#1e1e1e" fill-rule="evenodd"></path><path d="M-168.18 -94.58 C-165 -96.54, -158.12 -96.51, -153.3 -96.49 M-168.18 -94.58 C-164.53 -95.02, -161.11 -95.72, -153.3 -96.49 M-153.3 -96.49 C-152.9 -92.39, -155.11 -90.94, -157.16 -84.41 M-153.3 -96.49 C-153.77 -93.44, -154.48 -91.33, -157.16 -84.41 M-157.16 -84.41 C-159.36 -88.54, -162.85 -91.01, -168.18 -94.58 M-157.16 -84.41 C-159.28 -86.45, -163.25 -88.91, -168.18 -94.58 M-168.18 -94.58 C-168.18 -94.58, -168.18 -94.58, -168.18 -94.58 M-168.18 -94.58 C-168.18 -94.58, -168.18 -94.58, -168.18 -94.58" stroke="#1e1e1e" stroke-width="2" fill="none"></path></g></g><mask></mask><g transform="translate(330.6271634037339 599.3326239477435) rotate(0 2.7783203125 11.5)"><text x="0" y="0" font-family="Helvetica, Segoe UI Emoji" font-size="20px" fill="#1e1e1e" text-anchor="start" style="white-space: pre;" direction="ltr" dominant-baseline="text-before-edge">[</text></g><g stroke-linecap="round"><g transform="translate(822.0058747162341 436.86582994774363) rotate(0 -4.969359586418818 41.334777637466814)"><path d="M0.14 0.12 C-1.52 7.01, -9.54 27.42, -9.95 41.17 C-10.36 54.93, -3.57 75.78, -2.34 82.64 M0 0.03 C-1.67 6.95, -9.67 27.63, -10.06 41.35 C-10.45 55.08, -3.62 75.53, -2.36 82.38" stroke="#1e1e1e" stroke-width="2" fill="none"></path></g><g transform="translate(822.0058747162341 436.86582994774363) rotate(0 -4.969359586418818 41.334777637466814)"><path d="M-2.44 82.16 L-11.82 70.68 L0.69 67.67 L-2.51 82.23" stroke="none" stroke-width="0" fill="#1e1e1e" fill-rule="evenodd"></path><path d="M-2.36 82.38 C-4.95 79.02, -8 75.75, -11.77 70.7 M-2.36 82.38 C-6.05 77.98, -9.55 73.39, -11.77 70.7 M-11.77 70.7 C-7.66 69.79, -3.69 68.71, 0.53 67.66 M-11.77 70.7 C-8.12 69.77, -4.51 68.95, 0.53 67.66 M0.53 67.66 C-0.62 72.43, -1.38 76.87, -2.36 82.38 M0.53 67.66 C-0.39 72.76, -1.52 77.93, -2.36 82.38 M-2.36 82.38 C-2.36 82.38, -2.36 82.38, -2.36 82.38 M-2.36 82.38 C-2.36 82.38, -2.36 82.38, -2.36 82.38" stroke="#1e1e1e" stroke-width="2" fill="none"></path></g></g><mask></mask><g transform="translate(727.6502492787342 467.3478579477436) rotate(0 36.4208984375 11.5)"><text x="0" y="0" font-family="Helvetica, Segoe UI Emoji" font-size="20px" fill="#1e1e1e" text-anchor="start" style="white-space: pre;" direction="ltr" dominant-baseline="text-before-edge">запятая</text></g><g stroke-linecap="round"><g transform="translate(794.195429716234 403.13490994774355) rotate(0 -82.87384619675572 50.50029549152596)"><path d="M0.04 0.68 C-21.97 6.42, -104.28 17.95, -131.91 34.67 C-159.55 51.39, -160.34 89.94, -165.79 101.01 M-1.4 -0.01 C-23.61 5.4, -106.07 16.67, -133.08 33.16 C-160.09 49.65, -158.24 87.99, -163.44 98.94" stroke="#1e1e1e" stroke-width="2" fill="none"></path></g><g transform="translate(794.195429716234 403.13490994774355) rotate(0 -82.87384619675572 50.50029549152596)"><path d="M-163.02 100.83 L-166.63 84.2 L-154.51 88.42 L-164.41 100.43" stroke="none" stroke-width="0" fill="#1e1e1e" fill-rule="evenodd"></path><path d="M-163.44 98.94 C-163.58 93.84, -163.91 88.48, -166.49 84.25 M-163.44 98.94 C-164.25 93.28, -166 88.6, -166.49 84.25 M-166.49 84.25 C-164.56 85.94, -159.77 86.35, -154.15 87.16 M-166.49 84.25 C-163.52 85.22, -159.8 86.18, -154.15 87.16 M-154.15 87.16 C-158.14 89.6, -161.29 94.32, -163.44 98.94 M-154.15 87.16 C-157.07 89.99, -159.47 93.3, -163.44 98.94 M-163.44 98.94 C-163.44 98.94, -163.44 98.94, -163.44 98.94 M-163.44 98.94 C-163.44 98.94, -163.44 98.94, -163.44 98.94" stroke="#1e1e1e" stroke-width="2" fill="none"></path></g></g><mask></mask><g transform="translate(682.1506922787341 387.70680894774364) rotate(0 33.2177734375 11.5)"><text x="0" y="0" font-family="Helvetica, Segoe UI Emoji" font-size="20px" fill="#1e1e1e" text-anchor="start" style="white-space: pre;" direction="ltr" dominant-baseline="text-before-edge">пробел</text></g><g stroke-linecap="round"><g transform="translate(906.6519770341647 528.160767287038) rotate(262.3564214433137 -17.211294074994044 20.221485208405184)"><path d="M0.22 0.03 C-2.2 6.76, -8.51 39.36, -14.32 40.33 C-20.13 41.3, -31.31 11.59, -34.65 5.84 M-0.02 -0.22 C-2.5 6.57, -8.82 39.71, -14.5 40.64 C-20.18 41.57, -30.79 11.24, -34.09 5.34" stroke="#1e1e1e" stroke-width="2" fill="none"></path></g><g transform="translate(906.6519770341647 528.160767287038) rotate(262.3564214433137 -17.211294074994044 20.221485208405184)"><path d="M0.05 0.29 L2.37 15.37 L-9.29 11.27 L0.32 -0.15" stroke="none" stroke-width="0" fill="#1e1e1e" fill-rule="evenodd"></path><path d="M0.22 0.03 C1.15 5.88, 1.84 11.04, 2.57 14.84 M0.22 0.03 C1.23 5.26, 1.74 10.47, 2.57 14.84 M2.57 14.84 C-0.99 13.97, -4.56 12.4, -9.62 11.35 M2.57 14.84 C-0.61 13.97, -3.39 13.04, -9.62 11.35 M-9.62 11.35 C-6.65 7.87, -3.5 4.68, 0.22 0.03 M-9.62 11.35 C-6.94 8.5, -4.72 5.63, 0.22 0.03 M0.22 0.03 C0.22 0.03, 0.22 0.03, 0.22 0.03 M0.22 0.03 C0.22 0.03, 0.22 0.03, 0.22 0.03" stroke="#1e1e1e" stroke-width="2" fill="none"></path></g></g><mask></mask><g transform="translate(920.3309395737131 532.9640618255274) rotate(0 33.2177734375 11.5)"><text x="0" y="0" font-family="Helvetica, Segoe UI Emoji" font-size="20px" fill="#1e1e1e" text-anchor="start" style="white-space: pre;" direction="ltr" dominant-baseline="text-before-edge">пробел</text></g><g transform="translate(70.4143547162339 145.54499694774358) rotate(0 167.861328125 46)"><text x="0" y="0" font-family="Helvetica, Segoe UI Emoji" font-size="20px" fill="#1e1e1e" text-anchor="start" style="white-space: pre;" direction="ltr" dominant-baseline="text-before-edge">int a, b, c;</text><text x="0" y="23" font-family="Helvetica, Segoe UI Emoji" font-size="20px" fill="#1e1e1e" text-anchor="start" style="white-space: pre;" direction="ltr" dominant-baseline="text-before-edge">  int        long              alt   ;</text><text x="0" y="46" font-family="Helvetica, Segoe UI Emoji" font-size="20px" fill="#1e1e1e" text-anchor="start" style="white-space: pre;" direction="ltr" dominant-baseline="text-before-edge">short double fgd  [ 1 ]  [1]       ,     wef ;</text><text x="0" y="69" font-family="Helvetica, Segoe UI Emoji" font-size="20px" fill="#1e1e1e" text-anchor="start" style="white-space: pre;" direction="ltr" dominant-baseline="text-before-edge">int ab[1], f [3 ] [ 4] [   4   ]  , g[1];</text></g><g stroke-linecap="round"><g transform="translate(813.2558747162341 714.3658299477437) rotate(0 -50.411874744407214 -145.90635471902792)"><path d="M-0.74 1.11 C-11.3 -17, -46.78 -65.81, -63.38 -107.57 C-79.99 -149.32, -108.85 -218.51, -100.37 -249.41 C-91.89 -280.3, -26.99 -285.56, -12.5 -292.92 M1.07 0.64 C-9.11 -16.76, -44.61 -64.51, -61.14 -106.06 C-77.66 -147.62, -106.3 -217.72, -98.06 -248.7 C-89.83 -279.67, -25.59 -284.42, -11.73 -291.9" stroke="#e03131" stroke-width="2" fill="none"></path></g><g transform="translate(813.2558747162341 714.3658299477437) rotate(0 -50.411874744407214 -145.90635471902792)"><path d="M-12.41 -291.01 L-21.89 -283.08 L-27.41 -293.23 L-12.06 -292.87" stroke="none" stroke-width="0" fill="#e03131" fill-rule="evenodd"></path><path d="M-11.73 -291.9 C-13.63 -290.12, -18.47 -287.45, -23 -282.01 M-11.73 -291.9 C-13.92 -290.4, -16.67 -288.41, -23 -282.01 M-23 -282.01 C-24.46 -284.95, -26.13 -288.39, -26.56 -294.18 M-23 -282.01 C-24.38 -285.73, -24.46 -289.21, -26.56 -294.18 M-26.56 -294.18 C-23.12 -293.13, -18.45 -291.79, -11.73 -291.9 M-26.56 -294.18 C-23.96 -293.19, -20.18 -293.14, -11.73 -291.9 M-11.73 -291.9 C-11.73 -291.9, -11.73 -291.9, -11.73 -291.9 M-11.73 -291.9 C-11.73 -291.9, -11.73 -291.9, -11.73 -291.9" stroke="#e03131" stroke-width="2" fill="none"></path></g></g><mask></mask><g transform="translate(713.024715278734 679.6838119477436) rotate(0 35.5615234375 11.5)"><text x="0" y="0" font-family="Helvetica, Segoe UI Emoji" font-size="20px" fill="#e03131" text-anchor="start" style="white-space: pre;" direction="ltr" dominant-baseline="text-before-edge">_a-zA-Z</text></g><g stroke-linecap="round" transform="translate(587.718058716234 503.6026779477436) rotate(0 39 39.00000000000003)"><path d="M78 39 C78 41.03, 77.84 43.09, 77.52 45.1 C77.2 47.11, 76.72 49.12, 76.09 51.05 C75.46 52.99, 74.67 54.89, 73.75 56.71 C72.83 58.52, 71.75 60.28, 70.55 61.92 C69.36 63.57, 68.02 65.14, 66.58 66.58 C65.14 68.02, 63.57 69.36, 61.92 70.55 C60.28 71.75, 58.52 72.83, 56.71 73.75 C54.89 74.67, 52.99 75.46, 51.05 76.09 C49.12 76.72, 47.11 77.2, 45.1 77.52 C43.09 77.84, 41.03 78, 39 78 C36.97 78, 34.91 77.84, 32.9 77.52 C30.89 77.2, 28.88 76.72, 26.95 76.09 C25.01 75.46, 23.11 74.67, 21.29 73.75 C19.48 72.83, 17.72 71.75, 16.08 70.55 C14.43 69.36, 12.86 68.02, 11.42 66.58 C9.98 65.14, 8.64 63.57, 7.45 61.92 C6.25 60.28, 5.17 58.52, 4.25 56.71 C3.33 54.89, 2.54 52.99, 1.91 51.05 C1.28 49.12, 0.8 47.11, 0.48 45.1 C0.16 43.09, 0 41.03, 0 39 C0 36.97, 0.16 34.91, 0.48 32.9 C0.8 30.89, 1.28 28.88, 1.91 26.95 C2.54 25.01, 3.33 23.11, 4.25 21.29 C5.17 19.48, 6.25 17.72, 7.45 16.08 C8.64 14.43, 9.98 12.86, 11.42 11.42 C12.86 9.98, 14.43 8.64, 16.08 7.45 C17.72 6.25, 19.48 5.17, 21.29 4.25 C23.11 3.33, 25.01 2.54, 26.95 1.91 C28.88 1.28, 30.89 0.8, 32.9 0.48 C34.91 0.16, 36.97 0, 39 0 C41.03 0, 43.09 0.16, 45.1 0.48 C47.11 0.8, 49.12 1.28, 51.05 1.91 C52.99 2.54, 54.89 3.33, 56.71 4.25 C58.52 5.17, 60.28 6.25, 61.92 7.45 C63.57 8.64, 65.14 9.98, 66.58 11.42 C68.02 12.86, 69.36 14.43, 70.55 16.08 C71.75 17.72, 72.83 19.48, 73.75 21.29 C74.67 23.11, 75.46 25.01, 76.09 26.95 C76.72 28.88, 77.2 30.89, 77.52 32.9 C77.84 34.91, 77.92 37.98, 78 39 C78.08 40.02, 78.08 37.98, 78 39" stroke="#1e1e1e" stroke-width="2" fill="none"></path></g><g transform="translate(615.5178473749588 531.0255134814682) rotate(0 11.123046875 11.5)"><text x="11.123046875" y="0" font-family="Helvetica, Segoe UI Emoji" font-size="20px" fill="#1e1e1e" text-anchor="middle" style="white-space: pre;" direction="ltr" dominant-baseline="text-before-edge">q7</text></g><g stroke-linecap="round"><g transform="translate(667.0382027162341 552.5155899477437) rotate(0 64.90641264557166 5.719867514639105)"><path d="M0.07 -0.08 C10.73 1.8, 42.22 9.7, 63.86 11.16 C85.5 12.61, 118.87 9.05, 129.92 8.67 M-0.11 -0.26 C10.54 1.63, 42.13 9.82, 63.78 11.33 C85.42 12.85, 118.77 9.28, 129.77 8.82" stroke="#1971c2" stroke-width="2" fill="none"></path></g><g transform="translate(667.0382027162341 552.5155899477437) rotate(0 64.90641264557166 5.719867514639105)"><path d="M130.08 8.49 L116.9 16.12 L115.91 3.2 L130.05 8.79" stroke="none" stroke-width="0" fill="#1971c2" fill-rule="evenodd"></path><path d="M129.77 8.82 C126.23 10.87, 122.79 12.49, 116.64 16.08 M129.77 8.82 C126.49 10.76, 123.13 12.38, 116.64 16.08 M116.64 16.08 C116.28 11.71, 115.94 6.97, 115.77 3.43 M116.64 16.08 C116.54 13.36, 116.32 10.48, 115.77 3.43 M115.77 3.43 C121.45 5.7, 127.09 7.96, 129.77 8.82 M115.77 3.43 C118.99 4.63, 122.35 6.12, 129.77 8.82 M129.77 8.82 C129.77 8.82, 129.77 8.82, 129.77 8.82 M129.77 8.82 C129.77 8.82, 129.77 8.82, 129.77 8.82" stroke="#1971c2" stroke-width="2" fill="none"></path></g></g><mask></mask><g transform="translate(657.3214056120671 564.2199677255217) rotate(0 36.4208984375 11.5)"><text x="0" y="0" font-family="Helvetica, Segoe UI Emoji" font-size="20px" fill="#1971c2" text-anchor="start" style="white-space: pre;" direction="ltr" dominant-baseline="text-before-edge">запятая</text></g><g transform="translate(430.6392117326386 787.1445849095184) rotate(0 33.2177734375 11.5)"><text x="0" y="0" font-family="Helvetica, Segoe UI Emoji" font-size="20px" fill="#1e1e1e" text-anchor="start" style="white-space: pre;" direction="ltr" dominant-baseline="text-before-edge">пробел</text></g><g stroke-linecap="round"><g transform="translate(645.2416703204469 580.6192442554902) rotate(349.96456670023997 -14.67499989098053 18.944489504927816)"><path d="M0.09 -0.12 C-2.33 6.66, -9.53 41.12, -14.42 40.68 C-19.31 40.23, -26.81 4.43, -29.24 -2.79 M-0.18 0.38 C-2.63 7.08, -9.74 40.83, -14.62 40.34 C-19.49 39.85, -27.05 4.56, -29.44 -2.56" stroke="#1e1e1e" stroke-width="2" fill="none"></path></g><g transform="translate(645.2416703204469 580.6192442554902) rotate(349.96456670023997 -14.67499989098053 18.944489504927816)"><path d="M0.44 0.36 L2.35 14.28 L-9.37 10.84 L0.23 -0.35" stroke="none" stroke-width="0" fill="#1e1e1e" fill-rule="evenodd"></path><path d="M0.09 -0.12 C0.66 4.62, 1.88 9.27, 2.4 14.7 M0.09 -0.12 C0.83 3.72, 1.23 7.56, 2.4 14.7 M2.4 14.7 C-2.4 13.27, -6.68 12.07, -9.78 11.18 M2.4 14.7 C-1.77 13.6, -5.93 12.4, -9.78 11.18 M-9.78 11.18 C-7.65 8.96, -5.78 6.74, 0.09 -0.12 M-9.78 11.18 C-6 6.73, -1.87 2.13, 0.09 -0.12 M0.09 -0.12 C0.09 -0.12, 0.09 -0.12, 0.09 -0.12 M0.09 -0.12 C0.09 -0.12, 0.09 -0.12, 0.09 -0.12" stroke="#1e1e1e" stroke-width="2" fill="none"></path></g></g><mask></mask><g transform="translate(590.8858585737132 619.6594388255274) rotate(0 33.2177734375 11.5)"><text x="0" y="0" font-family="Helvetica, Segoe UI Emoji" font-size="20px" fill="#1e1e1e" text-anchor="start" style="white-space: pre;" direction="ltr" dominant-baseline="text-before-edge">пробел</text></g><g stroke-linecap="round"><g transform="translate(601.8392080495669 511.3936077255216) rotate(0 207.82918939065587 -201.2197457187064)"><path d="M0.72 -0.53 C4.75 -20.67, -22.54 -75.82, 24.76 -120.28 C72.07 -164.74, 218.75 -219.95, 284.55 -267.28 C350.34 -314.61, 397.26 -381.31, 419.53 -404.24 M-0.36 1.8 C3.53 -18.72, -23.19 -76.85, 24.22 -122.03 C71.62 -167.2, 218.09 -222.37, 284.07 -269.24 C350.04 -316.12, 397.41 -380.65, 420.06 -403.26" stroke="#1e1e1e" stroke-width="2" fill="none"></path></g><g transform="translate(601.8392080495669 511.3936077255216) rotate(0 207.82918939065587 -201.2197457187064)"><path d="M418.79 -401.57 L414.05 -389.83 L405.06 -399.28 L418.07 -403.24" stroke="none" stroke-width="0" fill="#1e1e1e" fill-rule="evenodd"></path><path d="M420.06 -403.26 C417.94 -397.29, 418 -392.56, 415.72 -388.91 M420.06 -403.26 C418.05 -398.64, 416.27 -393.19, 415.72 -388.91 M415.72 -388.91 C412.3 -391.93, 409.75 -395.42, 406.27 -397.36 M415.72 -388.91 C412.46 -391.15, 410.29 -393.33, 406.27 -397.36 M406.27 -397.36 C411.18 -398.02, 416.25 -402.83, 420.06 -403.26 M406.27 -397.36 C409.98 -398.94, 414.4 -400.57, 420.06 -403.26 M420.06 -403.26 C420.06 -403.26, 420.06 -403.26, 420.06 -403.26 M420.06 -403.26 C420.06 -403.26, 420.06 -403.26, 420.06 -403.26" stroke="#1e1e1e" stroke-width="2" fill="none"></path></g></g><mask></mask><g transform="translate(896.2292597370672 191.54499672552151) rotate(0 2.7783203125 11.5)"><text x="0" y="0" font-family="Helvetica, Segoe UI Emoji" font-size="20px" fill="#1e1e1e" text-anchor="start" style="white-space: pre;" direction="ltr" dominant-baseline="text-before-edge">;</text></g><g stroke-linecap="round"><g transform="translate(799.8392080495669 377.3936077255216) rotate(0 -299.7339543100446 51.266126197714286)"><path d="M0.29 0.17 C-54.76 -7.43, -229.25 -70.09, -329.25 -44.48 C-429.26 -18.88, -554.88 120.75, -599.76 153.81 M-1.01 -0.78 C-56.34 -8.24, -230.96 -72.3, -330.34 -46.34 C-429.71 -20.37, -552.64 121.48, -597.27 155.03" stroke="#1971c2" stroke-width="2" fill="none"></path></g><g transform="translate(799.8392080495669 377.3936077255216) rotate(0 -299.7339543100446 51.266126197714286)"><path d="M-597.32 154.46 L-590.01 142.7 L-580.98 150.14 L-597.7 154.87" stroke="none" stroke-width="0" fill="#1971c2" fill-rule="evenodd"></path><path d="M-597.27 155.03 C-594.93 149.3, -592.25 143.27, -591.49 141.18 M-597.27 155.03 C-595.41 150.75, -593.45 147.01, -591.49 141.18 M-591.49 141.18 C-589.91 143.02, -587.46 144.89, -582.95 150.55 M-591.49 141.18 C-588.47 144.48, -585.83 148.03, -582.95 150.55 M-582.95 150.55 C-586.08 150.73, -590.74 153.75, -597.27 155.03 M-582.95 150.55 C-585.24 151.9, -588.42 152.95, -597.27 155.03 M-597.27 155.03 C-597.27 155.03, -597.27 155.03, -597.27 155.03 M-597.27 155.03 C-597.27 155.03, -597.27 155.03, -597.27 155.03" stroke="#1971c2" stroke-width="2" fill="none"></path></g></g><mask></mask><g transform="translate(298.8392080495669 397.3936077255216) rotate(0 2.7783203125 11.5)"><text x="0" y="0" font-family="Helvetica, Segoe UI Emoji" font-size="20px" fill="#1971c2" text-anchor="start" style="white-space: pre;" direction="ltr" dominant-baseline="text-before-edge">[</text></g><g stroke-linecap="round"><g transform="translate(585.8392080495669 546.3936077255216) rotate(0 -179.70219717775262 -11.142523475243351)"><path d="M-0.04 -0.2 C-30.42 -4.33, -122.31 -25.47, -182.16 -24.96 C-242.01 -24.45, -329.68 -1.8, -359.13 2.89 M-0.37 0.24 C-30.67 -3.96, -121.85 -25.85, -181.68 -25.38 C-241.51 -24.9, -329.84 -1.57, -359.36 3.1" stroke="#1971c2" stroke-width="2" fill="none"></path></g><g transform="translate(585.8392080495669 546.3936077255216) rotate(0 -179.70219717775262 -11.142523475243351)"><path d="M-359.67 2.94 L-347.27 -5.76 L-344.9 7.09 L-359.18 3.46" stroke="none" stroke-width="0" fill="#1971c2" fill-rule="evenodd"></path><path d="M-359.36 3.1 C-355.5 -0.18, -351.02 -3.2, -347.29 -5.81 M-359.36 3.1 C-356.28 0.76, -353.37 -1.48, -347.29 -5.81 M-347.29 -5.81 C-346.44 -0.89, -345.52 3.54, -344.78 6.61 M-347.29 -5.81 C-346.9 -3.01, -346.12 -0.38, -344.78 6.61 M-344.78 6.61 C-349.31 5.46, -353.07 4.34, -359.36 3.1 M-344.78 6.61 C-347.84 5.78, -350.96 5.14, -359.36 3.1 M-359.36 3.1 C-359.36 3.1, -359.36 3.1, -359.36 3.1 M-359.36 3.1 C-359.36 3.1, -359.36 3.1, -359.36 3.1" stroke="#1971c2" stroke-width="2" fill="none"></path></g></g><mask></mask><g transform="translate(389.36935673706694 488.5804927255216) rotate(0 2.7783203125 11.5)"><text x="0" y="0" font-family="Helvetica, Segoe UI Emoji" font-size="20px" fill="#1971c2" text-anchor="start" style="white-space: pre;" direction="ltr" dominant-baseline="text-before-edge">[</text></g><g stroke-linecap="round"><g transform="translate(448.8392080495669 730.3936077255216) rotate(0 177.9440395530313 -70.96673562489451)"><path d="M-0.44 0.08 C31.51 -8.8, 131.56 -30.23, 191.02 -53.91 C250.48 -77.59, 328.63 -127.35, 356.33 -142.02 M1.53 -0.92 C33.38 -9.62, 131.14 -29.55, 190.08 -52.85 C249.03 -76.14, 327.3 -126.06, 355.21 -140.71" stroke="#2f9e44" stroke-width="2" fill="none"></path></g><g transform="translate(448.8392080495669 730.3936077255216) rotate(0 177.9440395530313 -70.96673562489451)"><path d="M356.95 -141.95 L346.06 -129.84 L338.5 -139.95 L355.73 -140.79" stroke="none" stroke-width="0" fill="#2f9e44" fill-rule="evenodd"></path><path d="M355.21 -140.71 C353.13 -137.72, 349.78 -135.6, 346.54 -128.46 M355.21 -140.71 C353.15 -136.47, 349.78 -133.13, 346.54 -128.46 M346.54 -128.46 C344.25 -133.18, 341 -135.48, 340.26 -139.47 M346.54 -128.46 C344.6 -131.51, 343.15 -134.75, 340.26 -139.47 M340.26 -139.47 C346.29 -139.55, 352.65 -141.68, 355.21 -140.71 M340.26 -139.47 C346.18 -139.31, 350.78 -139.93, 355.21 -140.71 M355.21 -140.71 C355.21 -140.71, 355.21 -140.71, 355.21 -140.71 M355.21 -140.71 C355.21 -140.71, 355.21 -140.71, 355.21 -140.71" stroke="#2f9e44" stroke-width="2" fill="none"></path></g></g><mask></mask><g transform="translate(463.8569846120665 690.2188527255216) rotate(0 36.4208984375 11.5)"><text x="0" y="0" font-family="Helvetica, Segoe UI Emoji" font-size="20px" fill="#2f9e44" text-anchor="start" style="white-space: pre;" direction="ltr" dominant-baseline="text-before-edge">запятая</text></g><g stroke-linecap="round"><g transform="translate(423.0614302717888 687.6158299477431) rotate(0 293.00585309331836 -305.6278054299868)"><path d="M0.32 1 C16.45 -44.82, 54.04 -196.66, 96.32 -275.09 C138.61 -353.52, 192.44 -419.59, 254.03 -469.59 C315.62 -519.59, 410.4 -551.31, 465.89 -575.09 C521.38 -598.87, 566.68 -606.21, 586.98 -612.25 M-0.96 0.48 C15.06 -45.67, 53.22 -198.7, 95.54 -276.86 C137.87 -355.01, 191.27 -418.4, 252.99 -468.47 C314.71 -518.54, 410.43 -553.38, 465.84 -577.29 C521.25 -601.19, 565.45 -606.1, 585.43 -611.88" stroke="#e03131" stroke-width="2" fill="none"></path></g><g transform="translate(423.0614302717888 687.6158299477431) rotate(0 293.00585309331836 -305.6278054299868)"><path d="M584.3 -613.02 L573.38 -602.35 L569.48 -614.28 L585.28 -613.45" stroke="none" stroke-width="0" fill="#e03131" fill-rule="evenodd"></path><path d="M585.43 -611.88 C583.51 -609, 579.97 -607.61, 573.59 -602.68 M585.43 -611.88 C582.12 -609.35, 579.37 -606.33, 573.59 -602.68 M573.59 -602.68 C573.29 -607.3, 572.14 -611.33, 570.77 -615.04 M573.59 -602.68 C573.14 -604.98, 571.97 -607.75, 570.77 -615.04 M570.77 -615.04 C577.58 -613.13, 582.41 -613.87, 585.43 -611.88 M570.77 -615.04 C574.56 -613.96, 580.25 -613.66, 585.43 -611.88 M585.43 -611.88 C585.43 -611.88, 585.43 -611.88, 585.43 -611.88 M585.43 -611.88 C585.43 -611.88, 585.43 -611.88, 585.43 -611.88" stroke="#e03131" stroke-width="2" fill="none"></path></g></g><mask></mask><g transform="translate(643.3319555148446 203.04499694774307) rotate(0 2.7783203125 11.5)"><text x="0" y="0" font-family="Helvetica, Segoe UI Emoji" font-size="20px" fill="#e03131" text-anchor="start" style="white-space: pre;" direction="ltr" dominant-baseline="text-before-edge">;</text></g><g stroke-linecap="round"><g transform="translate(1041.1725413829001 771.1713855032987) rotate(0 -515.1786816133146 23.170346129591707)"><path d="M0.82 -0.94 C-94.54 45.48, -406.13 265.38, -572.94 278.03 C-739.75 290.69, -931.35 156.03, -1000.06 74.99 C-1068.76 -6.05, -1004.42 -159.28, -985.17 -208.23 C-965.93 -257.17, -901.43 -216.77, -884.57 -218.69 M-0.22 1.19 C-95.65 47.85, -407.17 267.15, -573.85 279.59 C-740.54 292.02, -931.8 157.44, -1000.33 75.78 C-1068.85 -5.88, -1004.63 -161.39, -985.02 -210.38 C-965.41 -259.36, -899.75 -216.94, -882.68 -218.13" stroke="#1971c2" stroke-width="2" fill="none"></path></g><g transform="translate(1041.1725413829001 771.1713855032987) rotate(0 -515.1786816133146 23.170346129591707)"><path d="M-882.43 -218.85 L-897.15 -213.64 L-892.43 -227.33 L-883.87 -220.08" stroke="none" stroke-width="0" fill="#1971c2" fill-rule="evenodd"></path><path d="M-882.68 -218.13 C-887.3 -217.36, -889.54 -215.66, -897.46 -215.59 M-882.68 -218.13 C-886.23 -217.29, -889.06 -217.39, -897.46 -215.59 M-897.46 -215.59 C-897.06 -218.87, -895.62 -221.71, -894.13 -227.82 M-897.46 -215.59 C-895.92 -219.54, -895.23 -221.82, -894.13 -227.82 M-894.13 -227.82 C-890.92 -224.87, -888.01 -224.53, -882.68 -218.13 M-894.13 -227.82 C-889.5 -224.48, -885.69 -220.44, -882.68 -218.13 M-882.68 -218.13 C-882.68 -218.13, -882.68 -218.13, -882.68 -218.13 M-882.68 -218.13 C-882.68 -218.13, -882.68 -218.13, -882.68 -218.13" stroke="#1971c2" stroke-width="2" fill="none"></path></g></g><mask></mask><g transform="translate(748.5862390495668 950.2854687255217) rotate(0 2.7783203125 11.5)"><text x="0" y="0" font-family="Helvetica, Segoe UI Emoji" font-size="20px" fill="#1971c2" text-anchor="start" style="white-space: pre;" direction="ltr" dominant-baseline="text-before-edge">[</text></g><g stroke-linecap="round"><g transform="translate(814.1725413829001 777.1713855032987) rotate(0 -382.14334266926886 16.431006164506954)"><path d="M-0.3 -0.07 C-73.64 36.85, -315.76 217.36, -440.5 221.4 C-565.23 225.43, -702.45 84.72, -748.72 24.13 C-795 -36.45, -733.27 -106.68, -718.13 -142.14 C-703 -177.6, -667.99 -181.1, -657.91 -188.62 M1.75 -1.15 C-71.67 35.4, -316 215.04, -441.18 219.48 C-566.36 223.93, -703.21 85.62, -749.34 25.52 C-795.47 -34.58, -732.96 -105.42, -717.96 -141.1 C-702.95 -176.78, -669.04 -180.75, -659.33 -188.55" stroke="#2f9e44" stroke-width="2" fill="none"></path></g><g transform="translate(814.1725413829001 777.1713855032987) rotate(0 -382.14334266926886 16.431006164506954)"><path d="M-661.25 -189.09 L-670.64 -177.12 L-674.41 -186.86 L-657.45 -189.89" stroke="none" stroke-width="0" fill="#2f9e44" fill-rule="evenodd"></path><path d="M-659.33 -188.55 C-661.92 -184.84, -663.83 -182.02, -668.73 -176.86 M-659.33 -188.55 C-662.21 -185.31, -664.97 -180.82, -668.73 -176.86 M-668.73 -176.86 C-669.92 -180.96, -672.31 -186.21, -674.33 -188.24 M-668.73 -176.86 C-670.43 -179.32, -671.79 -182.19, -674.33 -188.24 M-674.33 -188.24 C-668.77 -188.65, -665.02 -187.78, -659.33 -188.55 M-674.33 -188.24 C-670.94 -187.56, -665.79 -188.63, -659.33 -188.55 M-659.33 -188.55 C-659.33 -188.55, -659.33 -188.55, -659.33 -188.55 M-659.33 -188.55 C-659.33 -188.55, -659.33 -188.55, -659.33 -188.55" stroke="#2f9e44" stroke-width="2" fill="none"></path></g></g><mask></mask><g transform="translate(633.3449910495667 855.7253827255217) rotate(0 2.7783203125 11.5)"><text x="0" y="0" font-family="Helvetica, Segoe UI Emoji" font-size="20px" fill="#2f9e44" text-anchor="start" style="white-space: pre;" direction="ltr" dominant-baseline="text-before-edge">[</text></g></svg>